<?xml version="1.0" encoding="utf-8"?>
<!-- Generator: Adobe Illustrator 24.0.2, SVG Export Plug-In . SVG Version: 6.00 Build 0)  -->
<svg version="1.1" id="Capa_1" xmlns="http://www.w3.org/2000/svg" xmlns:xlink="http://www.w3.org/1999/xlink" x="0px" y="0px"
	 viewBox="0 0 512 512" style="enable-background:new 0 0 512 512;" xml:space="preserve">
<style type="text/css">
	.st0{fill:#FFFFFF;}
</style>
<path class="st0" d="M421.1,246V135.3c17.2-3.5,30.2-18.7,30.2-37c0-20.8-16.9-37.7-37.7-37.7c-18.2,0-33.5,13-37,30.2H264.4
	C245.3,38.6,195.1,1.2,136.3,1.2c-29,0-56.7,9-80.1,26c-3.3,2.4-4.1,7.1-1.7,10.5C57,41,61.7,41.8,65,39.3
	c20.8-15.1,45.5-23.1,71.3-23.1c52.6,0,97.5,33.6,114.3,80.5c-0.1,0.5-0.2,1.1-0.2,1.7c0,2.2,1,4.3,2.6,5.6
	c3.1,10.7,4.7,21.9,4.7,33.5c0,34.5-14.5,65.7-37.7,87.8c-3-25.2-22.8-33.2-39.9-38.1c-0.2,0-0.3-0.1-0.5-0.1
	c-1.9-0.5-3.8-1-5.6-1.5c-1.2-0.3-2.4-0.7-3.7-1c-1.3-0.3-2.4-2.1-3.2-4c18.1-12.5,31.5-33.6,31.5-52.1v-16.8
	c0-20.9-6.7-38.6-19.3-51.3c-11.3-11.3-26.5-17.7-42.9-18c-0.1,0-0.2,0-0.2,0c-16.3,0.3-31.5,6.6-42.9,18
	C80.7,73.2,74,90.9,74,111.8v16.8c0,18.5,13.4,39.7,31.5,52.1c-0.9,1.9-2,3.6-3.3,4c-1.2,0.3-2.4,0.7-3.6,1c-1.8,0.5-3.7,1-5.6,1.5
	c-0.1,0-0.3,0.1-0.4,0.1c-17.2,4.9-37,12.8-39.9,38.1C29.5,203.2,15,172,15,137.5c0-27.6,9.5-54.7,26.8-76.1
	c2.6-3.2,2.1-7.9-1.1-10.5s-7.9-2.1-10.5,1.1C10.7,76.1,0,106.4,0,137.5C0,200.2,42.6,253.2,100.4,269v98.1
	c-17.2,3.5-30.2,18.7-30.2,37c0,20.8,16.9,37.7,37.7,37.7c18.2,0,33.5-13,37-30.2h99.7c16.2,57.2,68.9,99.2,131.2,99.2
	c75.2,0,136.3-61.2,136.3-136.3C512,315.2,474,264.7,421.1,246L421.1,246z M413.6,75.7c12.5,0,22.7,10.2,22.7,22.7
	s-10.2,22.7-22.7,22.7s-22.7-10.2-22.7-22.7S401.1,75.7,413.6,75.7z M136.3,57.5c20.7,0.4,42.8,14.6,46.7,44.6
	c-2.7-1.3-4.5-3.2-6.4-5.2c-3.3-3.4-7.7-7.8-15.4-7.8c-1.8,0-3.9,0.3-6.1,0.8c-2.8,0.7-5.1,1.4-7.2,1.9c-6.1,1.6-9.1,2.5-11.5,2.5
	c-2.4,0-5.4-0.8-11.5-2.4c-2.1-0.6-4.4-1.2-7.3-1.9c-11.7-3-17.4,2.8-21.5,7c-2,2-3.8,3.8-6.4,5.2C93.5,72.1,115.6,57.9,136.3,57.5
	L136.3,57.5z M89,128.5v-10.3c9.4-2.2,14.3-7.2,17.7-10.7c3.4-3.5,3.7-3.8,7-3c2.7,0.7,5.1,1.3,7.1,1.9c7.1,1.9,11,3,15.4,3
	c4.4,0,8.3-1.1,15.4-3c2-0.5,4.3-1.2,7-1.9c3.3-0.9,3.7-0.5,7.1,3c3.4,3.5,8.3,8.5,17.7,10.7v10.3c0,16.9-17.3,38.7-36.2,45.7
	c-8.2,3-14,3-22.2,0C106.3,167.2,89,145.4,89,128.5L89,128.5z M160.2,196l-20.3,11.9c-0.1,0.1-0.2,0.1-0.3,0.2
	c-3.3,2.1-3.4,2.1-6.7,0c-0.1-0.1-0.2-0.1-0.3-0.2L112.4,196c3-2.3,5-5.4,6.4-8.3c0.4,0.2,0.8,0.3,1.2,0.5
	c5.8,2.1,11.1,3.2,16.3,3.2c5.3,0,10.5-1.1,16.3-3.2c0.4-0.2,0.8-0.3,1.2-0.5C155.3,190.6,157.3,193.7,160.2,196L160.2,196z
	 M67.3,237.2V232c0-18.4,9.9-24.4,26.6-29.5l31.1,18.2c4.1,2.6,7.7,3.9,11.4,3.9c3.6,0,7.3-1.3,11.3-3.9l31.1-18.2
	c16.7,5.1,26.6,11.1,26.6,29.5v5.2c-19.6,13.6-43.4,21.6-69,21.6S86.9,250.9,67.3,237.2L67.3,237.2z M107.9,426.8
	c-12.5,0-22.7-10.2-22.7-22.7c0-12.5,10.2-22.7,22.7-22.7s22.7,10.2,22.7,22.7C130.6,416.6,120.4,426.8,107.9,426.8z M444.7,474.2
	c-19.6,13.6-43.4,21.6-69,21.6s-49.4-8-69-21.6V469c0-18.4,9.9-24.4,26.6-29.5l31.1,18.2c4.1,2.6,7.7,3.9,11.4,3.9
	c3.6,0,7.3-1.3,11.3-3.9l31.1-18.2c16.7,5.1,26.6,11.1,26.6,29.5L444.7,474.2L444.7,474.2z M346.1,344.5c3.4-3.5,3.8-3.8,7.1-3
	c2.7,0.7,5.1,1.3,7.1,1.9c7.1,1.9,11,3,15.4,3c4.4,0,8.3-1.1,15.5-3c2-0.5,4.3-1.2,7-1.9c3.3-0.9,3.7-0.5,7.1,3
	c3.4,3.5,8.3,8.5,17.7,10.7v10.3c0,16.9-17.2,38.7-36.2,45.7c-8.2,3-14,3-22.2,0c-18.9-7-36.2-28.8-36.2-45.7v-10.3
	C337.8,353,342.7,348,346.1,344.5L346.1,344.5z M329,339.2c3.9-30.1,26-44.3,46.7-44.6c20.7,0.4,42.8,14.5,46.7,44.6
	c-2.6-1.3-4.5-3.2-6.4-5.2c-4.1-4.2-9.8-10-21.6-7c-2.7,0.7-5.1,1.3-7.1,1.9c-6.1,1.6-9.2,2.5-11.6,2.5c-2.4,0-5.4-0.8-11.5-2.4
	c-2.1-0.6-4.4-1.2-7.3-1.9c-11.7-3-17.4,2.8-21.5,7C333.5,336,331.6,337.8,329,339.2L329,339.2z M358.1,424.8
	c0.4,0.2,0.8,0.3,1.2,0.5c5.8,2.1,11.1,3.2,16.3,3.2s10.5-1.1,16.3-3.2c0.4-0.2,0.8-0.3,1.2-0.5c1.4,2.8,3.4,5.9,6.4,8.3l-20.3,11.9
	c-0.1,0.1-0.2,0.1-0.3,0.2c-3.3,2.1-3.4,2.1-6.7,0c-0.1-0.1-0.2-0.1-0.3-0.2L351.7,433C354.7,430.7,356.7,427.6,358.1,424.8
	L358.1,424.8z M459.3,462.3c-3-25.2-22.8-33.2-39.9-38.1c-0.2,0-8.5-2.3-9.7-2.6c-1.3-0.3-2.4-2.1-3.2-4
	c18.1-12.5,31.5-33.6,31.5-52.1v-16.8c0-20.9-6.7-38.6-19.3-51.3c-11.3-11.3-26.5-17.7-42.8-18c-0.1,0-0.2,0-0.2,0
	c-16.3,0.3-31.5,6.6-42.9,18c-12.6,12.7-19.3,30.4-19.3,51.3v16.8c0,18.5,13.4,39.6,31.5,52.1c-0.9,1.9-2,3.6-3.3,4
	c-1.2,0.3-9.5,2.6-9.7,2.6c-17.2,4.9-36.9,12.8-39.9,38c-23.2-22.1-37.7-53.3-37.7-87.8c0-27.6,9.5-54.7,26.8-76.1
	c2.6-3.2,2.1-7.9-1.1-10.5c-3.2-2.6-7.9-2.1-10.5,1.1c-19.4,24.1-30.2,54.5-30.2,85.5c0,7.5,0.6,14.9,1.8,22.1h-96.3
	c-3-14.8-14.7-26.5-29.4-29.5v-94.9c6.8,1.1,13.8,1.6,21,1.6c75.2,0,136.3-61.2,136.3-136.3c0-10.9-1.3-21.5-3.7-31.6h107.7
	c3,14.8,14.7,26.5,29.5,29.5v106.3c-9.8-2.2-20-3.4-30.4-3.4c-29,0-56.7,9-80.1,26c-3.4,2.4-4.1,7.1-1.7,10.5
	c2.4,3.4,7.1,4.1,10.5,1.7c20.8-15.1,45.5-23.1,71.3-23.1c66.9,0,121.3,54.4,121.3,121.3C497,409,482.5,440.2,459.3,462.3
	L459.3,462.3z"/>
</svg>
