<?xml version="1.0" encoding="utf-8"?>
<!-- Generator: Adobe Illustrator 24.0.2, SVG Export Plug-In . SVG Version: 6.00 Build 0)  -->
<svg version="1.1" id="Capa_1" xmlns="http://www.w3.org/2000/svg" xmlns:xlink="http://www.w3.org/1999/xlink" x="0px" y="0px"
	 viewBox="0 0 512 512" style="enable-background:new 0 0 512 512;" xml:space="preserve">
<style type="text/css">
	.st0{fill:#083151;}
</style>
<g>
	<g>
		<path class="st0" d="M474,410c-17.5,0-32.3,11.9-36.7,28H404v-0.3c0-5.5-4.5-10-10-10c-5.5,0-10,4.5-10,10V448c0,5.5,4.5,10,10,10
			h43.3c4.4,16.1,19.2,28,36.7,28c21,0,38-17,38-38C512,427.1,495,410,474,410z M474,466c-9.9,0-18-8.1-18-18c0-9.9,8.1-18,18-18
			c9.9,0,18,8.1,18,18C492,457.9,483.9,466,474,466z"/>
	</g>
</g>
<g>
	<g>
		<path class="st0" d="M118,54H74.7C70.3,37.9,55.5,26,38,26C17,26,0,43,0,64s17,38,38,38c17.5,0,32.3-11.9,36.7-28H108
			c0,5.5,4.5,10,10,10c5.5,0,10-4.5,10-10V64C128,58.5,123.5,54,118,54z M38,82c-9.9,0-18-8.1-18-18s8.1-18,18-18s18,8.1,18,18
			S47.9,82,38,82z"/>
	</g>
</g>
<g>
	<g>
		<path class="st0" d="M440.2,211.7h-21.4c-3.7-13.8-9.2-27-16.3-39.5l15.1-15.1c3.4-3.4,5.2-7.8,5.2-12.6s-1.9-9.2-5.2-12.6
			l-37.5-37.5c-3.4-3.4-7.8-5.2-12.6-5.2s-9.2,1.9-12.6,5.2l-15.1,15.1c-12.4-7.1-25.7-12.6-39.5-16.3V71.8c0-9.8-8-17.8-17.8-17.8
			h-53.1c-9.8,0-17.8,8-17.8,17.8v21.4c-13.8,3.8-27,9.2-39.4,16.4l-15.2-15.2c-3.4-3.4-7.8-5.2-12.6-5.2s-9.2,1.9-12.6,5.2
			l-37.5,37.5c-3.4,3.4-5.2,7.8-5.2,12.6s1.9,9.2,5.2,12.6l15.2,15.2c-7.1,12.4-12.5,25.6-16.3,39.3H71.8c-9.8,0-17.8,8-17.8,17.8
			v53.1c0,9.8,8,17.8,17.8,17.8h21.6c3.7,13.7,9.2,26.9,16.3,39.3l-15.3,15.3c-3.4,3.4-5.2,7.8-5.2,12.6s1.9,9.2,5.2,12.6l37.5,37.5
			c3.4,3.4,7.8,5.2,12.6,5.2s9.2-1.9,12.6-5.2l15.3-15.3c12.3,7.1,25.5,12.5,39.3,16.3v21.6c0,9.8,8,17.8,17.8,17.8h53.1
			c9.8,0,17.8-8,17.8-17.8v-21.6c13.7-3.7,27-9.2,39.3-16.3l15.2,15.2c3.4,3.4,7.8,5.2,12.6,5.2s9.2-1.9,12.6-5.2l37.5-37.5
			c3.4-3.4,5.2-7.8,5.2-12.6c0-4.8-1.9-9.2-5.2-12.6l-15.2-15.2c7.1-12.4,12.6-25.6,16.4-39.4h21.4c9.8,0,17.8-8,17.8-17.8v-53.1
			C458,219.6,450,211.7,440.2,211.7z M438,280.3h-20.9c-8.1,0-15.2,5.4-17.2,13.3c-3.4,13.2-8.7,25.8-15.6,37.5
			c-4.1,7-3,15.8,2.8,21.6l14.8,14.8l-34.4,34.4L352.6,387c-5.7-5.7-14.6-6.9-21.5-2.8c-11.7,6.9-24.3,12.1-37.5,15.5
			c-7.8,2-13.3,9.1-13.3,17.2V438h-48.7v-21.1c0-8.1-5.4-15.2-13.3-17.2c-13.1-3.4-25.7-8.6-37.4-15.5c-7-4.1-15.8-2.9-21.6,2.8
			l-14.9,14.9l-34.4-34.4l14.9-14.9c5.7-5.7,6.9-14.6,2.8-21.6c-6.9-11.7-12.1-24.3-15.5-37.4c-2-7.8-9.1-13.3-17.2-13.3H74v-48.7
			H95c8.1,0,15.2-5.5,17.2-13.3c3.4-13.1,8.6-25.7,15.5-37.4c4.1-7,2.9-15.8-2.8-21.5l-14.9-14.9l34.4-34.4l14.8,14.8
			c5.7,5.7,14.6,6.9,21.6,2.8c11.7-6.9,24.3-12.1,37.5-15.6c7.8-2,13.3-9.1,13.3-17.2V74h48.7v20.9c0,8.1,5.5,15.2,13.3,17.2
			c13.2,3.4,25.8,8.7,37.6,15.6c7,4.1,15.8,2.9,21.6-2.8l14.7-14.7l34.4,34.4l-14.7,14.7c-5.7,5.7-6.9,14.6-2.8,21.6
			c6.9,11.8,12.1,24.4,15.6,37.6c2,7.8,9.1,13.3,17.2,13.3H438L438,280.3L438,280.3z"/>
	</g>
</g>
<g>
	<g>
		<path class="st0" d="M296.5,145.1c-5.2-1.9-10.9,0.8-12.8,6c-1.9,5.2,0.8,10.9,6,12.8C328.1,178,354,215,354,256c0,54-44,98-98,98
			c-54,0-98-44-98-98c0-40.5,24.3-76.2,61.9-91.2c5.1-2,7.6-7.8,5.6-13c-2-5.1-7.8-7.6-13-5.6c-21.7,8.6-40.3,23.4-53.6,42.7
			c-13.7,19.8-20.9,43-20.9,67.1c0,65.1,52.9,118,118,118s118-52.9,118-118C374,206.6,342.8,162.1,296.5,145.1z"/>
	</g>
</g>
<g>
	<g>
		<path class="st0" d="M256.5,138l-0.6,0c-5.5,0-10,4.5-10,10c0,5.5,4.5,10,10,10l0.4,0c0,0,0,0,0.1,0c5.5,0,10-4.4,10-9.9
			C266.5,142.5,262.1,138,256.5,138z"/>
	</g>
</g>
<g>
	<g>
		<path class="st0" d="M314.2,212.2H293c-5.5,0-10,4.5-10,10c0,4.6,3.1,8.5,7.4,9.6l-24.7,24.7L245.1,236c-3.9-3.9-10.2-3.9-14.1,0
			l-18.8,18.8c-3.9,3.9-3.9,10.2,0,14.1c3.9,3.9,10.2,3.9,14.1,0l11.7-11.7l20.6,20.6c1.9,1.9,4.4,2.9,7.1,2.9
			c2.7,0,5.2-1.1,7.1-2.9l31.8-31.8c1.1,4.3,5,7.4,9.6,7.4c5.5,0,10-4.5,10-10v-21.2C324.2,216.7,319.7,212.2,314.2,212.2z"/>
	</g>
</g>
<g>
	<g>
		<path class="st0" d="M203.4,277.7c-1.9-1.9-4.4-2.9-7.1-2.9c-2.6,0-5.2,1.1-7.1,2.9c-1.9,1.9-2.9,4.4-2.9,7.1s1.1,5.2,2.9,7.1
			c1.9,1.9,4.4,2.9,7.1,2.9c2.6,0,5.2-1.1,7.1-2.9c1.9-1.9,2.9-4.4,2.9-7.1S205.2,279.6,203.4,277.7z"/>
	</g>
</g>
<g>
	<g>
		<path class="st0" d="M474,26c-17.5,0-32.3,11.9-36.7,28H394c-5.5,0-10,4.5-10,10v10c0,5.5,4.5,10,10,10c5.5,0,10-4.5,10-10h33.3
			c4.4,16.1,19.2,28,36.7,28c21,0,38-17,38-38C512,43,495,26,474,26z M474,82c-9.9,0-18-8.1-18-18s8.1-18,18-18c9.9,0,18,8.1,18,18
			S483.9,82,474,82z"/>
	</g>
</g>
<g>
	<g>
		<path class="st0" d="M118,427.7c-5.5,0-10,4.5-10,10v0.3H74.7c-4.4-16.1-19.2-28-36.7-28c-21,0-38,17-38,38c0,21,17,38,38,38
			c17.5,0,32.3-11.9,36.7-28H118c5.5,0,10-4.5,10-10v-10.3C128,432.2,123.5,427.7,118,427.7z M38,466c-9.9,0-18-8.1-18-18
			c0-9.9,8.1-18,18-18s18,8.1,18,18C56,457.9,47.9,466,38,466z"/>
	</g>
</g>
</svg>
