<?xml version="1.0" encoding="utf-8"?>
<!-- Generator: Adobe Illustrator 24.0.2, SVG Export Plug-In . SVG Version: 6.00 Build 0)  -->
<svg version="1.1" id="Lag_1" xmlns="http://www.w3.org/2000/svg" xmlns:xlink="http://www.w3.org/1999/xlink" x="0px" y="0px"
	 viewBox="0 0 512 512" style="enable-background:new 0 0 512 512;" xml:space="preserve">
<style type="text/css">
	.st0{fill:#FFFFFF;}
</style>
<path class="st0" d="M351.2,486.9h17.9c2.3,0,4.4-1,5.9-2.8c1.4-1.8,2-4.1,1.5-6.3l-11.9-52.8l30.6,57.9c1.3,2.5,3.9,4,6.6,4h17.9
	c2.4,0,4.6-1.1,6-3s1.9-4.3,1.2-6.6l-22.1-77.2c-0.2-0.8-0.2-1.7,0.2-2.5c0.2-0.4,0.3-0.8,0.4-1.3l14.6-62.5c0,0,0,0,0,0
	c0-0.1,0-0.1,0-0.2c0-0.1,0-0.2,0-0.3c0-0.1,0-0.3,0.1-0.4c0-0.1,0-0.3,0-0.4c0-0.1,0-0.2,0-0.3c0,0,0,0,0,0c0,0,0-0.1,0-0.1
	c0,0,0,0,0-0.1l-0.1-14.3c0-4.1-3.4-7.4-7.5-7.4c0,0-0.1,0-0.1,0c-4.1,0-7.5,3.4-7.4,7.6l0.1,6.6l-36.1-0.5l-1.3-54l3.7,1.8
	c3.7,1.9,8.2,0.4,10.1-3.4c1.9-3.7,0.4-8.2-3.4-10.1l-79.9-40c-7.4-3.6-11.7-11.1-11.5-18.9l112,54.6c3.6,1.8,6,5.5,6.1,9.6
	l0.2,24.8c0,4.1,3.4,7.4,7.5,7.4h0.1c4.1,0,7.5-3.4,7.4-7.6l-0.2-24.8c-0.1-8.9-4.8-17.1-12.3-21.7c2.7-2.4,4.8-5.6,6.1-9.3
	l5.5-16.3c1.9-5.6,1.5-11.6-1.1-16.9s-7.1-9.3-12.7-11.1l-6.4-2.2c-5.6-1.9-11.6-1.5-16.9,1.1c-5.3,2.6-9.3,7.1-11.1,12.7l-5.5,16.3
	c-0.5,1.4-0.8,2.9-1,4.4l-74.7-36.4v-4.7c0-11.4-6.4-21.6-16.6-26.7l-18-8.9l0-24.1c0.9-0.4,1.8-0.9,2.6-1.4
	c12.5-8.3,22.8-19,30.4-31.4c2.3,1.3,4.9,2,7.6,2c0.9,0,1.9-0.1,2.9-0.3c4.1-0.8,6.7-4.7,6-8.8s-4.7-6.7-8.8-6
	c-0.1,0-0.3-0.1-0.3-0.1c-0.1-0.4,0-1.5,0.3-2.1c0.5-1.1,5.9-1.6,9-1.9c7.4-0.7,17.6-1.5,25.4-9.1c9.9-9.7,12.6-26.8,6-39.1
	c-5-9.3-14.7-15.5-24.7-15.9C308,5.9,305,6.3,302.4,7c-1.4-4.1-5.2-7-9.8-7h-90.3c-4.6,0-8.5,3-9.8,7.1c-3-0.9-6.2-1.3-9.3-1.2
	c-10,0.3-19.7,6.5-24.7,15.9c-6.6,12.3-3.9,29.5,6,39.1c7.8,7.6,18,8.4,25.4,9.1c3.2,0.3,8.5,0.8,9,1.9c0.3,0.6,0.4,1.7,0.3,2.1
	c-0.1,0.1-0.2,0.1-0.3,0.1c-4.1-0.8-8,1.9-8.8,6c-0.8,4.1,1.9,8,6,8.8c1,0.2,1.9,0.3,2.9,0.3c2.6,0,5.2-0.7,7.5-2
	c7.4,12.2,17.4,22.9,29.6,31.2c1.2,0.8,2.5,1.5,3.8,2V144l-18,8.9c-10.2,5-16.6,15.3-16.6,26.7v5.4l-35.8,17.5
	c-3.7,1.8-5.3,6.3-3.4,10c1.8,3.7,6.3,5.3,10,3.5l33.5-16.3c0.2,7.8-4,15.3-11.5,18.9l-79.9,39.9c-3.7,1.9-5.2,6.4-3.4,10.1
	c1.3,2.6,4,4.1,6.7,4.1c1.1,0,2.3-0.3,3.3-0.8l3.7-1.8l-1.3,54l-36.2,0.5l0.4-60.7c0-4.1,2.4-7.8,6.1-9.6l53-25.9
	c3.7-1.8,5.3-6.3,3.4-10c-1.8-3.7-6.3-5.3-10-3.5l-12.1,5.9c-0.2-1.5-0.5-3-1-4.4l-5.5-16.3c-1.9-5.6-5.9-10.1-11.1-12.7
	c-5.3-2.6-11.3-3-16.9-1.1l-6.4,2.2c-5.6,1.9-10.1,5.9-12.7,11.1c-2.6,5.3-3,11.3-1.1,16.9l5.5,16.3c1.3,3.7,3.4,6.8,6.1,9.3
	c-7.5,4.6-12.2,12.8-12.3,21.7L76,332v0c0,0,0,0.1,0,0.1c0,0.1,0,0.2,0,0.3c0,0,0,0.1,0,0.1c2,29.5,3.9,62.7,3.8,68.2L58,477.3
	c-0.6,2.3-0.2,4.7,1.2,6.6c1.4,1.9,3.6,3,6,3h17.9c2.8,0,5.3-1.5,6.6-4l30.6-58l-11.9,52.8c-0.5,2.2,0,4.6,1.5,6.3
	c1.4,1.8,3.6,2.8,5.9,2.8h17.9c3,0,5.8-1.8,6.9-4.6l30.9-75.2c1.9-3.8,1.1-8.8-3-19.6c-2.4-6.4-6-14.9-10.8-25.1
	c-6.5-14.1-13.3-27.9-15.7-32.6l1.6-67.3l60.9-30.5c13.8-6.8,21.3-21.2,19.7-35.7H272c-1.6,14.5,5.8,28.9,19.6,35.7l61,30.5
	l1.6,66.6l-37.6,51.7c-6.7,7.2-8,17.9-3.1,26.4l30.9,75.1C345.4,485,348.2,486.9,351.2,486.9z M91.8,206.2c0.8-1.7,2.3-3,4.1-3.6
	l6.4-2.2c0.7-0.3,1.5-0.4,2.3-0.4c1.1,0,2.1,0.2,3.1,0.7c1.7,0.8,3,2.3,3.6,4.1l5.5,16.3c0.6,1.8,0.5,3.7-0.4,5.4
	c-0.8,1.7-2.3,3-4.1,3.6l-6.4,2.2c-3.7,1.3-7.8-0.7-9-4.4l-5.5-16.3C90.8,209.8,90.9,207.9,91.8,206.2z M78.6,471.9h-3.5l19.4-67.6
	c0.4-1.5,1-3.6-3-64.8L125,339l1.2,0c-2.8,25.9-6.2,52.3-7.6,57L78.6,471.9z M128.7,471.9h-3.5l12.9-57.2c1.3-3.9,0.7-8.2-1.6-11.6
	l-2.9-4.7c1.1-4.8,2.5-14,4.8-33.1c0.3-2.5,0.6-5,0.9-7.4c9.5,20,17.5,38.5,18.3,44.1L128.7,471.9z M379.5,221.1l5.5-16.3
	c0.6-1.8,1.9-3.3,3.6-4.1c1-0.5,2.1-0.7,3.1-0.7c0.8,0,1.5,0.1,2.3,0.4l6.4,2.2c1.8,0.6,3.3,1.9,4.1,3.6c0.8,1.7,1,3.6,0.4,5.4
	l-5.5,16.3c-1.3,3.7-5.3,5.7-9,4.4l-6.4-2.2c-1.8-0.6-3.3-1.9-4.1-3.6C379,224.8,378.9,222.9,379.5,221.1z M310.9,21
	c5.4,0.2,9.9,4.2,11.9,8c3.4,6.4,1.9,16.3-3.2,21.3c-3.9,3.8-9.9,4.4-16.3,4.9c-0.9,0.1-1.8,0.2-2.7,0.3c1.1-5.1,1.8-10.4,2.1-15.7
	c2,0,3.6-0.3,4.3-0.5c4-1,6.5-5,5.5-9.1c-1-4-5-6.5-9.1-5.5c-0.2,0-0.4,0.1-0.7,0.1v-1c0-0.1,0-0.1,0.1-0.2
	C303.3,22.4,307.1,20.9,310.9,21z M191.3,55.1C185,54.6,179,54,175,50.2c-5.1-5-6.6-14.9-3.2-21.3c2-3.7,6.6-7.8,11.9-8
	c3.9-0.1,7.6,1.4,8,2.5c0.1,0.3,0.2,0.9,0.1,1.2c-0.2,0-0.5,0-0.7-0.1c-4-1-8.1,1.5-9.1,5.5c-1,4,1.5,8.1,5.5,9.1
	c0.8,0.2,2.5,0.5,4.5,0.5c0.3,5.3,0.9,10.6,2,15.7C193.2,55.3,192.2,55.2,191.3,55.1z M207,34.9V15h80.9v8c-0.1,0.8-0.1,1.7,0,2.6
	v8.7c0,28.9-14.4,55.8-38.6,71.7c-1.4,0.9-3.3,0.9-4.7,0C221.1,89.9,207,63.3,207,34.9z M220.3,179.6c0-5.7,3.2-10.7,8.2-13.2
	l18.9-9.3l18.9,9.3c5.1,2.5,8.2,7.6,8.2,13.2v1.7h-54.3V179.6z M409.8,471.9h-3.5l-39.7-75.2c0,0,0,0,0-0.1l-0.3-0.6
	c-0.2-0.4-0.5-0.9-0.8-1.2c-0.9-1.1-1.2-2.5-0.8-3.9c0.1-0.5,0.2-1,0.3-1.5l3.8-50.4l16.7,0.2l18,0.2L391,392.3
	c-1.5,3.8-1.7,8-0.5,11.9L409.8,471.9z M326.6,399.9c-1.8-2.9-1.3-6.7,1.1-9.1c0.3-0.3,0.5-0.5,0.7-0.8l23.9-32.9l-2.3,30.5
	c-1,4.1-0.6,8.3,1.1,12.1l-2.2,2.9c0,0.1-0.1,0.1-0.1,0.2c-2.5,3.5-3.2,7.9-1.8,11.9l12.9,57.2h-3.5L327.1,401
	C327,400.6,326.8,400.3,326.6,399.9z"/>
<path class="st0" d="M425.5,497h-29.7c-4.1,0-7.5,3.4-7.5,7.5s3.4,7.5,7.5,7.5h29.7c4.1,0,7.5-3.4,7.5-7.5S429.6,497,425.5,497z"/>
<path class="st0" d="M371.8,497h-29.7c-4.1,0-7.5,3.4-7.5,7.5s3.4,7.5,7.5,7.5h29.7c4.1,0,7.5-3.4,7.5-7.5S376,497,371.8,497z"/>
<path class="st0" d="M89.2,497H59.5c-4.1,0-7.5,3.4-7.5,7.5s3.4,7.5,7.5,7.5h29.7c4.1,0,7.5-3.4,7.5-7.5S93.3,497,89.2,497z"/>
<path class="st0" d="M142.8,497h-29.7c-4.1,0-7.5,3.4-7.5,7.5s3.4,7.5,7.5,7.5h29.7c4.1,0,7.5-3.4,7.5-7.5S147,497,142.8,497z"/>
<path class="st0" d="M71,77.3c-3.3,2.4-4.1,7.1-1.6,10.5c1.5,2,3.8,3.1,6.1,3.1c1.5,0,3.1-0.5,4.4-1.4c9.4-6.9,18.7-15.2,15.7-24.5
	c-1.7-5.3-6.5-7.4-9.5-8.6c1.1-1.4,3.3-3.6,7.4-6.9c3.3-2.6,3.8-7.3,1.3-10.5c-2.6-3.3-7.3-3.8-10.5-1.3
	c-7.9,6.3-16.7,14.6-13.6,23.8c1.7,5.1,6.1,7.2,9.2,8.5C78.3,71.4,75.8,73.8,71,77.3z"/>
<path class="st0" d="M138.8,117.8c4.1,3.2,6.2,5.4,7.4,6.9c-3,1.2-7.8,3.2-9.5,8.6c-3,9.3,6.2,17.6,15.7,24.5c1.3,1,2.9,1.4,4.4,1.4
	c2.3,0,4.6-1.1,6.1-3.1c2.4-3.3,1.7-8-1.6-10.5c-4.7-3.4-7.3-5.9-8.6-7.4c3-1.2,7.5-3.3,9.2-8.5c3-9.2-5.7-17.5-13.6-23.8
	c-3.3-2.6-8-2-10.5,1.3C135,110.5,135.5,115.2,138.8,117.8z"/>
<path class="st0" d="M109.4,114.7c3.4,0,6.1-2.7,6.1-6.1c0-3.4-2.7-6.1-6.1-6.1s-6.1,2.7-6.1,6.1C103.2,111.9,106,114.7,109.4,114.7
	z"/>
<path class="st0" d="M64.5,154.8c3.4,0,6.1-2.8,6.1-6.1s-2.7-6.1-6.1-6.1s-6.1,2.7-6.1,6.1S61.1,154.8,64.5,154.8z"/>
<path class="st0" d="M118.4,28.8c3.4,0,6.1-2.7,6.1-6.1c0-3.4-2.7-6.1-6.1-6.1s-6.1,2.7-6.1,6.1C112.3,26.1,115,28.8,118.4,28.8z"/>
<path class="st0" d="M367.8,77.3c-3.3,2.4-4.1,7.1-1.6,10.5c1.5,2,3.7,3.1,6.1,3.1c1.5,0,3.1-0.5,4.4-1.4
	c9.4-6.9,18.7-15.2,15.7-24.5c-1.7-5.3-6.5-7.4-9.5-8.6c1.1-1.4,3.3-3.6,7.4-6.9c3.3-2.6,3.8-7.3,1.3-10.5
	c-2.6-3.3-7.3-3.8-10.5-1.3c-7.9,6.3-16.7,14.6-13.6,23.8c1.7,5.1,6.1,7.2,9.2,8.5C375.1,71.4,372.5,73.8,367.8,77.3z"/>
<path class="st0" d="M457.9,145.6c-4.7-3.4-7.3-5.9-8.6-7.4c3-1.2,7.5-3.3,9.2-8.5c3-9.2-5.7-17.5-13.6-23.8c-3.3-2.6-8-2-10.5,1.3
	c-2.6,3.3-2,8,1.3,10.5c4.1,3.2,6.2,5.4,7.4,6.9c-3,1.2-7.8,3.2-9.5,8.6c-3,9.3,6.2,17.6,15.7,24.5c1.3,1,2.9,1.4,4.4,1.4
	c2.3,0,4.6-1.1,6.1-3.1C462,152.8,461.3,148.1,457.9,145.6z"/>
<path class="st0" d="M406.1,114.7c3.4,0,6.1-2.7,6.1-6.1c0-3.4-2.7-6.1-6.1-6.1s-6.1,2.7-6.1,6.1C400,111.9,402.8,114.7,406.1,114.7
	z"/>
<path class="st0" d="M361.3,154.8c3.4,0,6.1-2.8,6.1-6.1s-2.7-6.1-6.1-6.1s-6.1,2.7-6.1,6.1S357.9,154.8,361.3,154.8z"/>
<path class="st0" d="M415.2,28.8c3.4,0,6.1-2.7,6.1-6.1c0-3.4-2.7-6.1-6.1-6.1s-6.1,2.7-6.1,6.1C409.1,26.1,411.8,28.8,415.2,28.8z"
	/>
</svg>
