<?xml version="1.0" encoding="utf-8"?>
<!-- Generator: Adobe Illustrator 24.0.2, SVG Export Plug-In . SVG Version: 6.00 Build 0)  -->
<svg version="1.1" id="Capa_1" xmlns="http://www.w3.org/2000/svg" xmlns:xlink="http://www.w3.org/1999/xlink" x="0px" y="0px"
	 viewBox="0 0 512 512" style="enable-background:new 0 0 512 512;" xml:space="preserve">
<style type="text/css">
	.st0{fill:#083151;}
</style>
<g>
	<g>
		<path class="st0" d="M44.1,403.9c-1.9-1.9-4.4-2.9-7.1-2.9s-5.2,1.1-7.1,2.9c-1.9,1.9-2.9,4.4-2.9,7.1s1.1,5.2,2.9,7.1
			c1.9,1.9,4.4,2.9,7.1,2.9s5.2-1.1,7.1-2.9c1.9-1.9,2.9-4.4,2.9-7.1S45.9,405.8,44.1,403.9z"/>
	</g>
</g>
<g>
	<g>
		<path class="st0" d="M445.6,116L445.6,116l-66.7-45c-12.8-8.6-28-11.8-42.6-9.7c0.7-3.1,1-6.4,1-9.7c0-12.6-4.9-24.4-13.8-33.3
			l-4.5-4.5C310.1,4.9,298.3,0,285.7,0s-24.4,4.9-33.3,13.8c-8.9,8.9-13.8,20.7-13.8,33.3s4.9,24.4,13.8,33.3l4.5,4.5
			c5.7,5.7,12.5,9.7,20,11.9l-67.3,50.7c-4.3,3.2-7.4,7.5-9.2,12.1c-4.8-1-10-0.7-14.9,1L120.4,184c2.4-5.6,3.7-11.8,3.7-18.3v-6.4
			c0-26-21.1-47.1-47.1-47.1s-47.1,21.1-47.1,47.1v6.4c0,18.1,10.2,33.8,25.2,41.7C38.2,214.5,27,231.2,27,249.7V369
			c0,5.5,4.5,10,10,10s10-4.5,10-10v-18.3h39.4c2.1,0,4-0.6,5.6-1.7l45.2-30.7c4.4-3,9.6-4.6,15-4.6c14.7,0,26.7,12,26.7,26.7v62
			l-28,11.2v-50.1c0-3.6-1.9-6.9-5.1-8.7c-3.1-1.8-7-1.7-10.1,0.1L85,385.2c-6.3,3.8-10.2,10.7-10.2,18V492H47v-42
			c0-5.5-4.5-10-10-10s-10,4.5-10,10v52c0,5.5,4.5,10,10,10h48c5.5,0,10-4.5,10-10v-98.8c0-0.3,0.2-0.7,0.5-0.8l35.5-21.3V502
			c0,5.5,4.5,10,10,10h334c5.5,0,10-4.5,10-10V188.7C485,159.3,470.3,132.1,445.6,116z M271.1,70.8l-4.5-4.5
			c-5.1-5.1-7.9-11.9-7.9-19.2c0-7.2,2.8-14,7.9-19.2c5.1-5.1,11.9-7.9,19.2-7.9s14,2.8,19.2,7.9l4.5,4.5
			c10.6,10.6,10.6,27.8,0,38.3C298.9,81.3,281.7,81.3,271.1,70.8z M221.7,163.5l99.2-74.7c13.7-10.4,32.6-10.8,46.8-1.2l55.4,37.4
			l-48.9,39.4l-38.4-25.9c-2.8-1.9-6.3-2.2-9.4-1l-97,39.7c-3.6,1.5-7.8,0.1-9.8-3.3l0,0C217.6,170.4,218.5,165.9,221.7,163.5z
			 M49.9,165.7v-6.4c0-14.9,12.2-27.1,27.1-27.1s27.1,12.2,27.1,27.1v6.4c0,14.9-12.2,27.1-27.1,27.1S49.9,180.6,49.9,165.7z
			 M107,262.3v52.3l-23.6,16H47v-27v-53.9c0-11,6.9-20.8,17.3-24.5l128-45.7c3.6-1.3,7.6,0.2,9.5,3.4c2.1,3.6,1.1,8.2-2.3,10.6
			l-88.1,60.6C108.6,256,107,259,107,262.3z M152.3,293.7c-9,0-17.7,2.6-25.3,7.4v-33.5l83.8-57.6c4.8-3.3,8.2-7.8,10.2-12.9
			c1.9,0.4,3.7,0.6,5.7,0.6c3.5,0,7.1-0.7,10.5-2.1l92.1-37.7l39.7,26.8c8.8,6.8,14.1,17.5,14.1,28.6V292h-19.7
			c-2.2,0-4.4,0.7-6.1,2.1l-99.4,76.8L199,394.4v-54C199,314.6,178,293.7,152.3,293.7z M465,492H151v-56.9L266.5,389
			c0.9-0.3,1.7-0.8,2.4-1.4l97.8-75.6H465V492z M465,292h-20v-78.9c0-5.5-4.5-10-10-10s-10,4.5-10,10V292h-22v-78.6
			c0-13.2-4.8-26-13.1-36l50.5-40.6c15.6,12.6,24.7,31.5,24.7,51.9V292H465z"/>
	</g>
</g>
<g>
	<g>
		<path class="st0" d="M427,352.3h-23.3c-5.5,0-10,4.5-10,10s4.5,10,10,10H417V411c0,5.5,4.5,10,10,10s10-4.5,10-10v-48.7
			C437,356.8,432.5,352.3,427,352.3z"/>
	</g>
</g>
<g>
	<g>
		<path class="st0" d="M434.1,443c-1.9-1.9-4.4-2.9-7.1-2.9s-5.2,1.1-7.1,2.9c-1.9,1.9-2.9,4.4-2.9,7.1s1.1,5.2,2.9,7.1
			s4.4,2.9,7.1,2.9s5.2-1.1,7.1-2.9c1.9-1.9,2.9-4.4,2.9-7.1S435.9,444.8,434.1,443z"/>
	</g>
</g>
</svg>
