<?xml version="1.0" encoding="utf-8"?>
<!-- Generator: Adobe Illustrator 24.0.2, SVG Export Plug-In . SVG Version: 6.00 Build 0)  -->
<svg version="1.1" id="Capa_1" xmlns="http://www.w3.org/2000/svg" xmlns:xlink="http://www.w3.org/1999/xlink" x="0px" y="0px"
	 viewBox="0 0 512 512" style="enable-background:new 0 0 512 512;" xml:space="preserve">
<style type="text/css">
	.st0{fill:#083151;}
</style>
<g id="XMLID_2554_">
	<g id="XMLID_1092_">
		<path id="XMLID_1108_" class="st0" d="M484,380H342v-46c0-5.5-4.5-10-10-10h-27.7c1.1-3.1,1.7-6.5,1.7-10v-20.9
			c0-5.5-4.5-10-10-10s-10,4.5-10,10V314c0,5.5-4.5,10-10,10s-10-4.5-10-10v-91.5c0-5.5-4.5-10-10-10s-10,4.5-10,10V314
			c0,5.5-4.5,10-10,10s-10-4.5-10-10V179h60v24.1c0,5.5,4.5,10,10,10s10-4.5,10-10v-92.4L346.6,46c8.8-14,4.6-32.6-9.4-41.4
			c-14-8.8-32.6-4.6-41.4,9.4l-5.2,8.3C284.6,9.2,271.4,0,256,0s-28.6,9.2-34.6,22.4l-5.2-8.3c-8.8-14-27.4-18.2-41.4-9.4
			c-14,8.8-18.2,27.4-9.4,41.4l40.6,64.7V314c0,3.5,0.6,6.9,1.7,10H180c-5.5,0-10,4.5-10,10v94H28c-5.5,0-10,4.5-10,10v64
			c0,5.5,4.5,10,10,10h456c5.5,0,10-4.5,10-10V390C494,384.5,489.5,380,484,380z M238,38c0-9.9,8.1-18,18-18c9.9,0,18,8.1,18,18v4
			c0,9.9-8.1,18-18,18s-18-8.1-18-18V38z M182.3,35.3c-2.9-4.7-1.5-10.9,3.1-13.8c4.7-2.9,10.9-1.5,13.8,3.1L231,75.3
			c1.8,2.9,5,4.7,8.5,4.7h33c3.4,0,6.6-1.8,8.5-4.7l31.8-50.6c2.9-4.7,9.1-6.1,13.8-3.1c4.7,2.9,6.1,9.1,3.1,13.8l-42.2,67.1
			c-1,1.6-1.5,3.4-1.5,5.3V159h-60v-51.2c0-1.9-0.5-3.7-1.5-5.3L182.3,35.3z M38,448h132v44H38V448z M190,344h132v148H190V344z
			 M474,492H342v-92h132V492z"/>
		<path id="XMLID_1118_" class="st0" d="M296,238.1c-2.6,0-5.2,1.1-7.1,2.9s-2.9,4.4-2.9,7.1s1.1,5.2,2.9,7.1
			c1.9,1.9,4.4,2.9,7.1,2.9s5.2-1.1,7.1-2.9s2.9-4.4,2.9-7.1s-1.1-5.2-2.9-7.1S298.6,238.1,296,238.1z"/>
	</g>
</g>
</svg>
