<?xml version="1.0" encoding="utf-8"?>
<!-- Generator: Adobe Illustrator 24.0.2, SVG Export Plug-In . SVG Version: 6.00 Build 0)  -->
<svg version="1.1" id="Lag_1" xmlns="http://www.w3.org/2000/svg" xmlns:xlink="http://www.w3.org/1999/xlink" x="0px" y="0px"
	 viewBox="0 0 511 511" style="enable-background:new 0 0 511 511;" xml:space="preserve">
<style type="text/css">
	.st0{fill:#083151;}
</style>
<path class="st0" d="M488.6,199.3c-13.4-2.8-29.8,4-33.8,22l-13.9,62.4c-3.3-1.1-6.8-1.5-10.4-1.2c-7.4,0.5-14.1,3.9-18.9,9.4
	l-18.2,21c-13.2,15.2-13.2,15.2-27,18.9c-3.2,0.9-7.2,1.9-12.1,3.3c-56.2,16.5-78.2,68.1-80.6,110.5c-7.6,3.6-12.8,11.4-12.8,20.4
	v17.3c0,12.5,10.1,22.6,22.6,22.6H375c12.5,0,22.6-10.1,22.6-22.6V466c0-4.3-1.2-8.3-3.3-11.7l41-22c0,0,0.1,0,0.1-0.1
	c35.8-19.9,42-28.9,50.6-73.7c1-5.4-2.5-10.6-7.9-11.7c-5.4-1-10.6,2.5-11.7,7.9c-7.8,40.5-11.3,43.7-40.6,60l-53.4,28.7h-78.6
	c2.9-35,21.3-76,66-89.1c4.6-1.4,8.3-2.3,11.6-3.2c17.5-4.7,20.7-6.4,36.9-25.1l18.2-21c2.7-3.2,7.6-3.5,10.7-0.8
	c3.9,3.4,1.9,9,0,11.7c-9.5,14.2-18.8,27.8-27.8,40.9c-4.6,6.7-9.2,13.4-13.9,20.2c-3.1,4.6-1.9,10.8,2.6,13.9
	c4.6,3.1,10.8,1.9,13.9-2.6c4.6-6.8,9.2-13.5,13.8-20.2c9.1-13.2,18.4-26.8,28-41.2c5.8-8.7,7-18.9,3.8-27.4l16.5-74
	c1.8-8.1,8.9-7.1,10.3-6.8c2.3,0.5,7.6,2.4,6.2,9.7l-11.3,58.7c-1,5.4,2.5,10.6,7.9,11.7c5.4,1,10.6-2.5,11.7-7.9l11.3-58.7
	C513.9,214.4,502.1,202.1,488.6,199.3z M377.6,483.4c0,1.4-1.2,2.6-2.6,2.6h-91.5c-1.4,0-2.6-1.2-2.6-2.6v-17.3
	c0-1.4,1.2-2.6,2.6-2.6H375l0,0l0,0c1.4,0,2.6,1.2,2.6,2.6V483.4z"/>
<path class="st0" d="M485.7,307.5c-5.4-1-10.6,2.5-11.7,7.9l-0.1,0.3c-1,5.4,2.5,10.6,7.9,11.7c0.6,0.1,1.3,0.2,1.9,0.2
	c4.7,0,8.9-3.3,9.8-8.1l0.1-0.3C494.7,313.8,491.2,308.5,485.7,307.5z"/>
<path class="st0" d="M237.3,445.7c-2.4-42.4-24.4-94-80.6-110.5c-4.9-1.4-8.9-2.5-12.1-3.3c-13.8-3.7-13.8-3.7-27-18.9l-18.2-21
	c-4.8-5.6-11.5-8.9-18.9-9.4c-3.6-0.3-7.1,0.2-10.4,1.2l-13.9-62.4c-4-18-20.4-24.8-33.8-22s-25.2,15-21.8,33c1,5.4,6.3,9,11.7,7.9
	c5.4-1,9-6.3,7.9-11.7c-1.4-7.3,3.9-9.2,6.2-9.7c1.4-0.3,8.5-1.3,10.3,6.8l16.5,74c-3.2,8.5-2,18.6,3.8,27.3c9.6,14.4,19,28,28,41.2
	c4.6,6.7,9.2,13.3,13.8,20.1c3.1,4.6,9.3,5.7,13.9,2.6s5.7-9.3,2.6-13.9c-4.6-6.8-9.2-13.5-13.8-20.2c-9-13.1-18.4-26.7-27.9-41
	c-1.8-2.8-3.9-8.3,0-11.7c1.5-1.3,3.5-2,5.5-1.8c2,0.1,3.9,1.1,5.2,2.6l18.2,21c16.3,18.8,19.4,20.5,36.9,25.1
	c3.3,0.9,7,1.9,11.6,3.2c44.7,13.1,63.1,54.1,66,89.1h-78.6L85,414.6c-29.3-16.3-32.8-19.5-40.6-60l-11.3-58.7
	c-1-5.4-6.3-9-11.7-7.9c-5.4,1-9,6.3-7.9,11.7l11.3,58.7c8.6,44.8,14.8,53.8,50.6,73.7c0,0,0.1,0,0.1,0.1l41,22
	c-2.1,3.4-3.3,7.4-3.3,11.7v17.3c0,12.5,10.1,22.6,22.6,22.6h91.5c12.5,0,22.6-10.1,22.6-22.6v-17.3
	C250.1,457.1,244.9,449.3,237.3,445.7z M230.2,483.4c0,1.4-1.2,2.6-2.6,2.6H136c-1.4,0-2.6-1.2-2.6-2.6v-17.3c0-1.4,1.2-2.6,2.6-2.6
	l0,0l0,0h91.5c1.4,0,2.6,1.2,2.6,2.6L230.2,483.4L230.2,483.4z"/>
<path class="st0" d="M19.9,279.7c5.4-1,9-6.3,7.9-11.7l-0.1-0.3c-1-5.4-6.3-9-11.7-7.9c-5.4,1-9,6.3-7.9,11.7l0.1,0.3
	c0.9,4.8,5.1,8.1,9.8,8.1C18.6,279.9,19.3,279.8,19.9,279.7z"/>
<path class="st0" d="M285.4,346.1c0-13-8.3-24.1-20-28.2v-12.1c30-2.3,57.1-14.8,78-34.1c0.6-0.4,1.1-0.9,1.5-1.4
	c24.7-23.6,40.1-56.8,40.1-93.6h17.8c4.1,11.6,15.2,20,28.2,20c16.5,0,29.9-13.4,29.9-29.9s-13.4-29.9-29.9-29.9
	c-13,0-24.1,8.3-28.2,20h-19.3c-2-12.9-5.9-25.2-11.4-36.6h25.8c2.6,0,5.2-1,7.1-2.9l10.3-10.3h37.5c4.1,11.6,15.2,20,28.2,20
	c16.5,0,29.9-13.4,29.9-29.9S497.5,67.3,481,67.3c-13,0-24.1,8.3-28.2,20h-41.6c-2.6,0-5.2,1.1-7.1,2.9l-10.3,10.3h-33.7
	c-10.8-14.7-24.5-27-40.4-36.1l17.1-17.1h30.1c4.1,11.6,15.2,20,28.2,20c16.5,0,29.9-13.4,29.9-29.9c0-17-13.4-30.4-29.9-30.4
	c-13,0-24.1,8.3-28.2,20h-34.2c-2.6,0-5.2,1.1-7.1,2.9L300.5,55c-14-5.2-29.2-8.1-45-8.1s-31,2.8-45,8.1l-25.1-25.1
	c-1.9-1.9-4.4-2.9-7.1-2.9h-34.2C140,15.3,128.9,7,115.9,7C99.4,7,86,20.4,86,36.9s13.4,29.9,29.9,29.9c13,0,24.1-8.3,28.2-20h30.1
	L191.3,64c-15.9,9.1-29.6,21.4-40.4,36.1h-33.7l-10.3-10.3c-1.9-1.9-4.4-2.9-7.1-2.9H58.2c-4.1-11.6-15.2-20-28.2-20
	c-16.6,0-30,13.4-30,29.9s13.4,29.9,29.9,29.9c13,0,24.1-8.3,28.2-20h37.5l10.3,10.3c1.9,1.9,4.4,2.9,7.1,2.9h25.8
	c-5.5,11.4-9.5,23.7-11.4,36.6h-19.3c-4.1-11.6-15.2-20-28.2-20c-16.5,0-29.9,13.4-29.9,29.9s13.4,29.9,29.9,29.9
	c13,0,24.1-8.3,28.2-20h17.8c0,36.8,15.4,70,40.1,93.6c0.5,0.5,1,1,1.5,1.4c20.8,19.3,48,31.8,78,34.1v12.1
	c-11.6,4.1-20,15.2-20,28.2c0,16.5,13.4,29.9,29.9,29.9C272,376,285.4,362.6,285.4,346.1z M481,86.8c5.5,0,10,4.5,10,10
	s-4.5,10-10,10s-10-4.5-10-10C471.1,91.3,475.5,86.8,481,86.8z M395.1,26.9c5.5,0,10,4.5,10,10s-4.5,10-10,10s-10-4.5-10-10
	S389.6,26.9,395.1,26.9z M115.9,46.9c-5.5,0-10-4.5-10-10s4.5-10,10-10s10,4.5,10,10S121.4,46.9,115.9,46.9z M30,106.8
	c-5.5,0-10-4.5-10-10s4.5-10,10-10s10,4.5,10,10C39.9,102.3,35.5,106.8,30,106.8z M183.8,259.4c2.3-24,16.7-45.4,37.9-56.7
	c9.4,7,21.1,11.1,33.7,11.1s24.3-4.1,33.7-11.1c21.3,11.3,35.6,32.7,37.9,56.7c-19.2,16.7-44.3,26.7-71.7,26.7
	S203,276.1,183.8,259.4z M218.6,147.7c2.4,0.4,4.9,0.6,7.4,0.6c14.5,0,29.2-5.9,39.9-12.2c7.7,6,17.2,9.3,26.5,9.3V157
	c0,10.3-4.2,19.6-11,26.2c-0.3,0.3-0.7,0.6-1,0.9c-6.6,6-15.3,9.7-24.9,9.7s-18.3-3.7-24.9-9.7c-0.3-0.3-0.6-0.6-1-0.9
	c-6.8-6.7-11-16-11-26.3V147.7L218.6,147.7z M219.1,127.4c2.9-17.4,18.1-30.7,36.4-30.7c17.5,0,32.2,12.3,35.9,28.7
	c-5.7-0.3-12.2-3-16.7-8.4c-3.4-4-9.2-4.7-13.4-1.7C251.3,122.5,232.4,131,219.1,127.4z M431.1,156.7c5.5,0,10,4.5,10,10
	s-4.5,10-10,10s-10-4.5-10-10C421.2,161.2,425.6,156.7,431.1,156.7z M79.9,176.6c-5.5,0-10-4.5-10-10s4.5-10,10-10s10,4.5,10,10
	C89.8,172.2,85.4,176.6,79.9,176.6z M255.5,66.9c60.5,0,109.7,49.2,109.7,109.7c0,24.2-7.9,46.6-21.2,64.7
	c-6.3-22.2-20.8-41.4-40.7-53.5c5.7-8.9,9.1-19.4,9.1-30.7v-23.3v-0.1l0,0c0-31.3-25.5-56.8-56.8-56.8s-56.8,25.5-56.8,56.8V157
	c0,11.3,3.3,21.9,9.1,30.7c-19.8,12.1-34.4,31.3-40.7,53.5C153.9,223,146,200.7,146,176.5C145.8,116.1,195,66.9,255.5,66.9z
	 M255.5,356c-5.5,0-10-4.5-10-10s4.5-10,10-10s10,4.5,10,10C265.5,351.6,261,356,255.5,356z"/>
</svg>
