<?xml version="1.0" encoding="utf-8"?>
<!-- Generator: Adobe Illustrator 24.0.2, SVG Export Plug-In . SVG Version: 6.00 Build 0)  -->
<svg version="1.1" id="Lag_1" xmlns="http://www.w3.org/2000/svg" xmlns:xlink="http://www.w3.org/1999/xlink" x="0px" y="0px"
	 viewBox="0 0 512 512" style="enable-background:new 0 0 512 512;" xml:space="preserve">
<style type="text/css">
	.st0{fill:#FFFFFF;}
</style>
<path class="st0" d="M375.1,225.8c4.2,0,7.7-3.5,7.7-7.7s-3.4-7.7-7.7-7.7c-4.2,0-7.7,3.5-7.7,7.7S370.9,225.8,375.1,225.8z"/>
<path class="st0" d="M504.4,84.7c4.3-4.5,7-10.6,7-17.3c0-7.2-3-13.6-7.9-18.1c3.9-4.4,6.4-10.2,6.4-16.6
	c0-13.7-11.1-24.9-24.8-24.9H365.4c-15,0-29.6,3.1-43.3,9.4c-11.7,5.3-24.2,8-37.1,8h-27.2v-0.2c0-8.6-7-15.5-15.5-15.5h-85.7
	C152.1,3.7,145.1,0,137.3,0c-6.7,0-12.8,2.7-17.3,7.1C115.5,2.7,109.4,0,102.7,0C96,0,89.9,2.7,85.4,7C81,2.7,74.9,0,68.2,0
	c-7.1,0-13.6,3-18.1,7.9c-4.4-3.9-10.2-6.4-16.5-6.4C19.9,1.5,8.8,12.7,8.8,26.4v120c0,15.1,3.1,29.7,9.3,43.4
	c5.3,11.8,8,24.3,8,37.2v27.3h-0.2c-8.6,0-15.5,7-15.5,15.5v85.9C4.7,360.4,1,367.4,1,375.3c0,6.8,2.7,12.9,7.1,17.4
	C3.7,397.1,1,403.3,1,410c0,6.7,2.7,12.8,7,17.3c-4.3,4.5-7,10.6-7,17.3c0,7.1,3,13.6,7.9,18.1c-3.9,4.4-6.4,10.2-6.4,16.6
	c0,13.7,11.1,24.9,24.8,24.9H147c15,0,29.6-3.1,43.3-9.4c11.7-5.3,24.2-8,37.1-8h27.2v0.2c0,8.6,7,15.5,15.5,15.5h85.6
	c4.5,5.7,11.6,9.4,19.4,9.4c6.7,0,12.8-2.7,17.3-7.1c4.5,4.4,10.6,7.1,17.3,7.1c6.7,0,12.8-2.7,17.2-7c4.5,4.3,10.6,7,17.3,7
	c7.1,0,13.6-3,18.1-7.9c4.6,4.1,10.7,6.4,16.5,6.4c13.7,0,24.8-11.2,24.8-24.9v-68.1c0-4.1-3.4-7.5-7.5-7.5c-4.1,0-7.5,3.4-7.5,7.5
	v68.1c0,5.5-4.4,9.9-9.8,9.9c-4,0-9.6-2.9-9.6-9.5c0-25-0.2-78.8-0.2-79.4v-6.3c0-4.1-3.4-7.5-7.5-7.5c-4.1,0-7.5,3.4-7.5,7.5v86.8
	c0,5.5-4.4,9.9-9.8,9.9c-4.9,0-9-3.7-9.7-8.5c0-0.5,0-0.9,0-1.4v-80.6c0-4.1-3.4-7.5-7.5-7.5c-1.3,0-2.6,0.4-3.7,1
	c-2.4,1.3-4,3.8-4,6.6v80.5c0,0.5,0,0.9,0,1.4c-0.7,4.8-4.8,8.5-9.7,8.5c-5.4,0-9.8-4.4-9.8-9.9v-86.8c0-4.1-3.4-7.5-7.5-7.5
	c-4.1,0-7.5,3.4-7.5,7.5v86.8c0,5.5-4.4,9.9-9.8,9.9c-5.4,0-9.8-4.4-9.8-9.9V344.3c0-4.1-3.4-7.5-7.5-7.5c-0.5,0-1,0.1-1.5,0.2
	h-22.9v-12.5c0-7,2.7-13.6,7.6-18.5l14.5-14.5c8.2-8.3,12.8-19.3,12.8-30.9v-2.9h103.1v27.3c0,15.1,3.1,29.7,9.3,43.4
	c5.3,11.8,8,24.3,8,37.2v16.9c0,4.1,3.4,7.5,7.5,7.5c4.1,0,7.5-3.4,7.5-7.5v-16.9c0-15.1-3.1-29.7-9.3-43.4c-5.3-11.8-8-24.3-8-37.2
	v-27.3h0.2c8.6,0,15.5-7,15.5-15.5v-86c5.7-4.6,9.4-11.6,9.4-19.4c0-6.8-2.7-12.9-7.1-17.4c4.4-4.5,7.1-10.6,7.1-17.4
	C511.4,95.2,508.7,89.2,504.4,84.7z M285.1,40.1c15,0,29.6-3.1,43.3-9.4c11.7-5.3,24.2-8,37.1-8h119.7c5.4,0,9.8,4.4,9.8,9.9
	c0,5.4-4.4,9.9-9.8,9.9h-88.4c-4.1,0-7.5,3.4-7.5,7.5c0,4.1,3.4,7.5,7.5,7.5h90c5.4,0,9.8,4.4,9.8,9.9c0,5-3.7,9.1-8.5,9.8
	c-0.5,0-0.9,0-1.4,0h-80.3c-4.1,0-7.5,3.4-7.5,7.5c0,1.3,0.4,2.6,1,3.7c1.3,2.4,3.8,4,6.6,4h80.3c0.5,0,0.9,0,1.4,0
	c4.8,0.7,8.4,4.8,8.4,9.8c0,5.4-4.4,9.9-9.8,9.9h-90c-4.1,0-7.5,3.4-7.5,7.5c0,4.1,3.4,7.5,7.5,7.5h90c5.4,0,9.8,4.4,9.8,9.9
	c0,5.4-4.4,9.9-9.8,9.9H344.3c-4.1,0-7.5,3.4-7.5,7.5c0,0.5,0.1,1.1,0.2,1.6v23h-12.4c-7,0-13.5-2.7-18.4-7.7l-14.5-14.5
	c-8.3-8.3-19.2-12.8-30.9-12.8h-2.8V40.1H285.1z M179.1,24.4v21.1c0,4.1,3.4,7.5,7.5,7.5c4.1,0,7.5-3.4,7.5-7.5V24.4h48.3
	c0.3,0,0.5,0.2,0.5,0.5v134.6c0,0.3-0.2,0.5-0.5,0.5h-48.3V76.9c0-4.1-3.4-7.5-7.5-7.5c-4.1,0-7.5,3.4-7.5,7.5V160h-16.7v-50.8
	c0-0.8-0.1-1.5-0.3-2.2V24.9c0-0.2,0-0.3,0-0.5H179.1z M31.8,183.7c-5.3-11.8-8-24.3-8-37.2v-120c0-5.5,4.4-9.9,9.8-9.9
	c5.4,0,9.8,4.4,9.8,9.9v86.9c0,4.1,3.4,7.5,7.5,7.5c4.1,0,7.5-3.4,7.5-7.5V24.9c0-5.5,4.4-9.9,9.8-9.9c4.9,0,9,3.7,9.7,8.5
	c0,0.5,0,0.9,0,1.4v80.6c0,4.1,3.4,7.5,7.5,7.5c1.3,0,2.6-0.4,3.7-1c2.4-1.3,4-3.8,4-6.6V24.9c0-0.5,0-0.9,0-1.4
	c0.7-4.8,4.8-8.5,9.7-8.5c5.4,0,9.8,4.4,9.8,9.9v88.5c0,4.1,3.4,7.5,7.5,7.5c4.1,0,7.5-3.4,7.5-7.5V24.9c0-5.5,4.4-9.9,9.8-9.9
	s9.8,4.4,9.8,9.9v141.7c0,0.2,0,0.3,0,0.5c0,0.1,0,0.2,0,0.3c0,3.9,3,7.1,6.8,7.5c0.3,0,0.7,0.1,1,0.1h24.2v12.5
	c0,7-2.7,13.6-7.6,18.5L157,220.6c-8.2,8.3-12.8,19.3-12.8,30.9v2.9H41.1v-27.3C41.1,212,37.9,197.4,31.8,183.7z M25.4,269.9
	c0-0.3,0.2-0.5,0.5-0.5H160c0.3,0,0.5,0.2,0.5,0.5v48.4H25.4V269.9z M227.4,471.8c-15,0-29.6,3.1-43.3,9.4c-11.7,5.3-24.2,8-37.1,8
	H27.4c-5.4,0-9.8-4.4-9.8-9.9c0-5.4,4.4-9.9,9.8-9.9h89.4c4.1,0,7.5-3.4,7.5-7.5s-3.4-7.5-7.5-7.5H25.8c-5.4,0-9.8-4.4-9.8-9.9
	c0-5,3.7-9.1,8.5-9.8c0.5,0,0.9,0,1.4,0h80.3c4.1,0,7.5-3.4,7.5-7.5c0-1.3-0.4-2.6-1-3.7c-1.3-2.4-3.8-4-6.6-4H25.8
	c-0.5,0-0.9,0-1.4,0c-4.8-0.7-8.4-4.8-8.4-9.8c0-5.4,4.4-9.9,9.8-9.9h90.9c4.1,0,7.5-3.4,7.5-7.5c0-4.1-3.4-7.5-7.5-7.5H25.9
	c-5.4,0-9.8-4.4-9.8-9.9c0-5.4,4.4-9.9,9.8-9.9h21c4.1,0,7.5-3.4,7.5-7.5s-3.4-7.5-7.5-7.5h-21c-0.2,0-0.3,0-0.5,0v-17.1h135.1v16.7
	h-50.6c-0.8,0-1.5,0.1-2.2,0.3H77.9c-4.1,0-7.5,3.4-7.5,7.5s3.4,7.5,7.5,7.5h90.3c4.1,0,7.5-3.4,7.5-7.5c0-0.5-0.1-1.1-0.2-1.6v-23
	H188c7,0,13.5,2.7,18.4,7.7l14.5,14.5c8.3,8.3,19.2,12.8,30.9,12.8h2.8v103.5H227.4z M269.6,487V352.5c0-0.3,0.2-0.5,0.5-0.5h48.2
	v135.6h-48.2C269.8,487.5,269.6,487.3,269.6,487z M333.3,487.5V351.9H350v50.8c0,0.8,0.1,1.5,0.3,2.2v82.1c0,0.2,0,0.3,0,0.5H333.3z
	 M353.2,260.5c0,7.7-3,14.9-8.4,20.4l-14.5,14.5c-7.7,7.8-12,18.1-12,29.1v12.5h-48.2c-8.6,0-15.5,7-15.5,15.5v0.8h-2.8
	c-7.6,0-14.8-3-20.3-8.4L217,330.4c-7.8-7.8-18.1-12.1-29-12.1h-12.5v-48.4c0-8.6-7-15.5-15.5-15.5h-0.8v-2.9c0-7.7,3-14.9,8.4-20.4
	l14.5-14.5c7.7-7.8,12-18.1,12-29.1V175h48.3c8.6,0,15.5-7,15.5-15.5v-0.8h2.8c7.6,0,14.8,3,20.3,8.4l14.5,14.5
	c7.8,7.8,18.1,12.1,29,12.1h12.4v48.5c0,8.6,7,15.5,15.5,15.5h0.8V260.5z M487,242.1c0,0.3-0.2,0.5-0.5,0.5H352.4
	c-0.3,0-0.5-0.2-0.5-0.5v-48.4H487V242.1z M487,178.6H351.9v-16.8h50.6c0.8,0,1.5-0.1,2.2-0.3h81.8c0.1,0,0.3,0,0.4,0L487,178.6
	L487,178.6z"/>
<path class="st0" d="M218.5,144.4c4.2,0,7.7-3.4,7.7-7.7c0-4.2-3.4-7.7-7.7-7.7s-7.7,3.4-7.7,7.7
	C210.8,140.9,214.3,144.4,218.5,144.4z"/>
<path class="st0" d="M137.3,286.2c-4.2,0-7.7,3.5-7.7,7.7s3.4,7.7,7.7,7.7c4.2,0,7.7-3.5,7.7-7.7S141.5,286.2,137.3,286.2z"/>
<path class="st0" d="M294,367.6c-4.2,0-7.7,3.4-7.7,7.7c0,4.2,3.4,7.7,7.7,7.7s7.7-3.4,7.7-7.7C301.6,371,298.2,367.6,294,367.6z"/>
</svg>
