<?xml version="1.0" encoding="UTF-8"?>
<!-- Generator: Adobe Illustrator 24.0.2, SVG Export Plug-In . SVG Version: 6.00 Build 0)  -->
<svg version="1.1" id="Lag_1" xmlns="http://www.w3.org/2000/svg" xmlns:xlink="http://www.w3.org/1999/xlink" x="0px" y="0px" viewBox="0 0 480 480" style="enable-background:new 0 0 480 480;" xml:space="preserve">
<style type="text/css">
	.st0{fill:#083151;}
</style>
<path class="st0" d="M48,416c0,4.4,3.6,8,8,8h144c4.4,0,8-3.6,8-8v-39.8c0-17.8-11.9-33.5-29-38.5l-27-7.7v-10.2  c10-7.5,16-19.3,16-31.8v-8c4.4,0,8-3.6,8-8v-8c0-26.5-21.5-48-48-48s-48,21.5-48,48v8c0,4.4,3.6,8,8,8v8c0,12.5,6,24.3,16,31.8V330  l-27,7.7c-17.1,5-29,20.6-29,38.5V416z M128,232c17.6,0,31.9,14.2,32,31.8c-2.3-0.6-4.2-2.1-5.3-4.2l-3.6-7.1  c-1-2.1-2.9-3.6-5.1-4.2c-2.2-0.6-4.6-0.2-6.5,1.1l-11.9,7.9c-6.6,4.4-14.3,6.7-22.2,6.7H96C96,246.3,110.3,232,128,232z M105.5,280  c11.1,0,21.9-3.3,31.1-9.4l4.4-2.9c2.5,4.4,6.4,8,11.1,10V288c0,13.3-10.7,24-24,24s-24-10.7-24-24v-8H105.5z M128,328  c2.7,0,5.4-0.3,8-0.8v8.8c0,2.3,1,4.4,2.8,5.9L128,350l-10.8-8.1c1.7-1.5,2.7-3.6,2.8-5.9v-8.8C122.6,327.7,125.3,328,128,328z   M64,376.2c0-10.7,7.1-20.1,17.4-23.1l17.4-5l24.4,18.3c2.8,2.1,6.8,2.1,9.6,0l24.4-18.3l17.4,5c10.3,3,17.4,12.4,17.4,23.1V408h-16  v-32h-16v32H96v-32H80v32H64V376.2z"/>
<path class="st0" d="M424,376c13.3,0,24-10.7,24-24v-96c0-13.3-10.7-24-24-24H264c-13.3,0-24,10.7-24,24v96c0,13.3,10.7,24,24,24h56  v32h-16v16h80v-16h-16v-32H424z M264,360c-4.4,0-8-3.6-8-8v-96c0-4.4,3.6-8,8-8h160c4.4,0,8,3.6,8,8v96c0,4.4-3.6,8-8,8h-56v-40  c0-4.4-3.6-8-8-8h-32c-4.4,0-8,3.6-8,8v40H264z M336,408v-80h16v80H336z"/>
<path class="st0" d="M160,160h48v40c0,3.2,1.9,6.2,4.9,7.4s6.4,0.6,8.7-1.7l45.7-45.7H368c13.3,0,24-10.7,24-24V24  c0-13.3-10.7-24-24-24H160c-13.3,0-24,10.7-24,24v112C136,149.3,146.7,160,160,160z M152,24c0-4.4,3.6-8,8-8h208c4.4,0,8,3.6,8,8  v112c0,4.4-3.6,8-8,8H264c-2.1,0-4.2,0.8-5.7,2.3L224,180.7V152c0-4.4-3.6-8-8-8h-56c-4.4,0-8-3.6-8-8V24z"/>
<path class="st0" d="M480,432H0v16h16v24c0,4.4,3.6,8,8,8h432c4.4,0,8-3.6,8-8v-24h16V432z M448,464H32v-16h416V464z"/>
<path class="st0" d="M192,40h144v16H192V40z"/>
<path class="st0" d="M192,72h144v16H192V72z"/>
<path class="st0" d="M192,104h144v16H192V104z"/>
<path class="st0" d="M8,272h40v-16H16V80h40V64H8c-4.4,0-8,3.6-8,8v192C0,268.4,3.6,272,8,272z"/>
<path class="st0" d="M72,64h16v16H72V64z"/>
<path class="st0" d="M104,64h16v16h-16V64z"/>
<path class="st0" d="M432,152h16V72c0-4.4-3.6-8-8-8h-32v16h24V152z"/>
<path class="st0" d="M432,168h16v16h-16V168z"/>
<path class="st0" d="M432,200h16v16h-16V200z"/>
</svg>