<?xml version="1.0" standalone="no"?>
<!DOCTYPE svg PUBLIC "-//W3C//DTD SVG 20010904//EN"
 "http://www.w3.org/TR/2001/REC-SVG-20010904/DTD/svg10.dtd">
<svg version="1.0" xmlns="http://www.w3.org/2000/svg"
 width="401.000000pt" height="201.000000pt" viewBox="0 0 401.000000 201.000000"
 preserveAspectRatio="xMidYMid meet">

<g transform="translate(0.000000,201.000000) scale(0.100000,-0.100000)"
fill="#000000" stroke="none">
<path d="M2042 1765 c-205 -95 -342 -440 -342 -861 l0 -92 -47 -41 c-117 -103
-153 -45 -103 165 28 119 27 157 -6 183 -15 12 -40 21 -56 21 -17 0 -41 9 -55
20 -60 47 -154 8 -265 -108 -127 -134 -175 -261 -130 -348 69 -134 227 -158
339 -51 l33 31 36 -42 c61 -72 125 -73 227 -2 l60 41 29 -35 c54 -65 128 -70
245 -15 l62 30 42 -31 c94 -68 189 -60 276 22 l31 30 44 -46 c59 -61 110 -65
191 -15 51 31 67 35 67 19 0 -19 40 -50 63 -50 47 0 72 45 123 215 29 98 54
154 78 174 13 11 16 7 21 -26 24 -138 78 -191 187 -179 l58 7 0 -32 c0 -48 43
-113 87 -134 63 -30 121 -30 178 -1 27 14 51 24 53 21 2 -2 1 -16 -3 -32 -5
-22 -29 -43 -106 -93 -179 -116 -312 -279 -312 -382 0 -35 6 -47 35 -74 66
-59 171 -63 264 -9 116 68 193 212 248 466 4 19 29 40 102 85 121 74 204 150
204 185 0 24 -26 59 -44 59 -3 0 -30 -23 -59 -51 -52 -50 -165 -125 -175 -115
-3 3 14 108 37 232 46 245 46 244 -12 244 -40 0 -84 -26 -101 -59 -9 -16 -25
-71 -36 -122 -29 -137 -48 -185 -85 -224 -23 -25 -41 -35 -63 -35 -63 0 -66
66 -12 279 38 153 38 157 -5 171 -67 22 -111 -23 -156 -160 -28 -84 -33 -90
-85 -90 -65 0 -73 25 -59 171 7 76 7 77 -19 94 -56 37 -140 -12 -195 -115 -34
-62 -47 -53 -38 27 6 56 -5 89 -32 98 -41 13 -60 -3 -80 -68 -16 -52 -53 -214
-67 -293 -4 -23 -108 -104 -133 -104 -9 0 -22 5 -29 12 -18 18 -14 113 8 206
36 151 26 190 -53 199 -26 3 -47 9 -47 13 0 11 -49 30 -79 30 -103 0 -302
-202 -340 -347 -13 -48 -52 -81 -106 -90 -41 -7 -62 7 -82 55 -13 32 -13 34
73 170 103 164 192 342 234 472 57 171 50 315 -15 340 -37 14 -43 13 -103 -15z
m26 -173 c5 -47 -38 -167 -117 -327 -73 -149 -100 -193 -101 -163 0 36 40 247
61 313 39 128 95 218 132 213 17 -2 23 -11 25 -36z m-648 -547 c0 -96 -63
-280 -108 -316 -33 -25 -88 -25 -102 0 -40 76 48 268 148 320 50 27 62 26 62
-4z m1010 -7 c0 -52 -37 -193 -65 -247 -13 -27 -35 -57 -47 -65 -32 -23 -85
-21 -98 3 -40 75 46 262 145 318 54 31 65 29 65 -9z m1066 -712 c-48 -127
-126 -215 -181 -205 -29 6 -31 52 -5 94 31 50 204 211 208 193 2 -8 -8 -45
-22 -82z"/>
<path d="M510 1679 c-214 -24 -363 -167 -330 -315 25 -110 79 -160 283 -259
230 -112 327 -195 327 -280 0 -54 -29 -86 -113 -125 -120 -56 -314 -65 -399
-18 -23 13 -53 39 -66 58 -21 32 -23 44 -20 130 l3 95 -33 3 c-20 2 -47 -5
-72 -19 -132 -75 -71 -307 103 -390 183 -86 501 -52 647 70 86 71 127 229 82
318 -42 82 -157 164 -364 261 -115 54 -192 115 -215 170 -24 57 -1 97 82 141
46 24 60 26 170 26 106 0 125 -3 163 -23 30 -16 48 -34 58 -59 18 -43 12 -78
-27 -152 -36 -67 -37 -98 -5 -112 100 -46 217 149 177 296 -36 135 -220 210
-451 184z"/>
</g>
</svg>
