<?xml version="1.0" standalone="no"?>
<!DOCTYPE svg PUBLIC "-//W3C//DTD SVG 20010904//EN"
 "http://www.w3.org/TR/2001/REC-SVG-20010904/DTD/svg10.dtd">
<svg version="1.0" xmlns="http://www.w3.org/2000/svg"
 width="401.000000pt" height="200.000000pt" viewBox="0 0 401.000000 200.000000"
 preserveAspectRatio="xMidYMid meet">

<g transform="translate(0.000000,200.000000) scale(0.100000,-0.100000)"
fill="#000000" stroke="none">
<path d="M482 1767 c-20 -12 -412 -586 -412 -604 0 -5 98 -66 217 -136 l217
-129 21 28 c81 110 486 714 491 731 8 30 -1 65 -25 94 -19 24 -20 24 -253 26
-176 2 -239 0 -256 -10z"/>
<path d="M1358 1336 c-90 -32 -128 -81 -128 -164 0 -101 45 -150 160 -176 36
-8 97 -22 135 -30 90 -20 125 -54 125 -122 0 -93 -60 -143 -170 -144 -106 0
-178 38 -200 105 -10 29 -16 35 -41 35 -33 0 -35 -7 -14 -58 20 -47 50 -79
100 -105 33 -18 57 -22 145 -22 90 0 111 3 147 23 65 34 93 83 93 162 0 121
-45 159 -232 196 -136 27 -167 43 -185 97 -24 70 15 135 92 156 107 29 212 -1
250 -71 20 -37 38 -46 63 -30 9 7 7 19 -11 53 -26 48 -70 83 -126 99 -50 14
-159 12 -203 -4z"/>
<path d="M3648 1336 c-94 -34 -128 -81 -128 -171 0 -111 48 -150 230 -185 111
-21 158 -43 177 -81 30 -57 4 -148 -50 -176 -41 -21 -142 -28 -194 -14 -54 15
-99 52 -115 96 -10 29 -17 35 -41 35 -28 0 -29 -2 -23 -32 10 -50 46 -95 101
-125 46 -26 59 -28 155 -28 97 0 109 2 153 28 65 38 90 90 85 172 -7 112 -55
148 -243 184 -150 28 -192 63 -180 146 12 80 90 123 205 112 74 -6 117 -31
143 -79 20 -39 53 -51 63 -23 11 27 -39 98 -86 124 -55 31 -192 40 -252 17z"/>
<path d="M2116 1322 c-7 -12 -256 -641 -256 -647 0 -3 13 -5 29 -5 28 0 31 5
68 100 l38 100 157 0 157 0 38 -100 c37 -98 39 -100 71 -100 17 0 32 1 32 3 0
1 -58 148 -129 327 l-128 325 -36 3 c-19 2 -38 -1 -41 -6z m164 -389 c0 -10
-32 -13 -130 -13 -71 0 -130 2 -130 5 0 6 121 318 128 329 5 9 131 -297 132
-321z"/>
<path d="M2566 1318 c4 -7 50 -73 102 -147 52 -74 96 -139 98 -146 3 -6 -45
-84 -106 -174 -60 -89 -112 -167 -115 -172 -4 -5 9 -9 27 -9 31 0 38 8 132
151 55 82 102 146 106 142 4 -4 51 -72 104 -150 93 -137 99 -143 132 -143 19
0 34 1 34 3 0 1 -53 79 -119 172 l-118 170 103 152 c57 83 104 154 104 157 0
3 -13 6 -28 6 -25 0 -39 -15 -117 -130 -49 -71 -92 -130 -95 -130 -4 0 -46 59
-93 130 -84 126 -88 130 -123 130 -25 0 -33 -3 -28 -12z"/>
<path d="M3250 1000 l0 -330 25 0 25 0 0 330 0 330 -25 0 -25 0 0 -330z"/>
</g>
</svg>
