<?xml version="1.0" standalone="no"?>
<!DOCTYPE svg PUBLIC "-//W3C//DTD SVG 20010904//EN"
 "http://www.w3.org/TR/2001/REC-SVG-20010904/DTD/svg10.dtd">
<svg version="1.0" xmlns="http://www.w3.org/2000/svg"
 width="401.000000pt" height="201.000000pt" viewBox="0 0 401.000000 201.000000"
 preserveAspectRatio="xMidYMid meet">

<g transform="translate(0.000000,201.000000) scale(0.100000,-0.100000)"
fill="#000000" stroke="none">
<path d="M175 1159 c-88 -116 -164 -218 -169 -226 -14 -26 13 -33 125 -33 87
0 110 3 127 18 16 13 30 61 61 211 44 208 48 241 29 241 -7 0 -85 -95 -173
-211z"/>
<path d="M1225 1230 c-27 -30 -7 -70 35 -70 42 0 62 40 35 70 -10 11 -26 20
-35 20 -9 0 -25 -9 -35 -20z"/>
<path d="M2328 1233 c-16 -4 -18 -23 -18 -214 l0 -209 40 0 40 0 0 215 0 215
-22 -1 c-13 -1 -31 -3 -40 -6z"/>
<path d="M895 1216 c-42 -19 -65 -48 -72 -90 -13 -79 29 -118 146 -137 40 -7
82 -20 94 -29 18 -15 20 -21 10 -43 -22 -48 -114 -49 -185 -2 l-37 25 -21 -30
c-12 -16 -18 -35 -14 -41 16 -27 110 -59 172 -59 114 0 172 44 172 130 0 42
-4 52 -34 77 -26 23 -50 32 -109 42 -91 15 -125 37 -108 68 21 40 103 41 168
2 l31 -19 21 26 c27 35 24 45 -25 69 -49 25 -166 31 -209 11z"/>
<path d="M1517 1123 c-4 -4 -36 -6 -72 -5 l-65 2 0 -155 0 -155 40 0 40 0 0
110 c0 104 1 110 24 125 27 18 69 7 80 -20 3 -9 6 -61 6 -116 l0 -99 40 0 40
0 0 109 c0 113 3 122 47 135 17 5 29 1 48 -18 23 -23 25 -32 25 -126 l0 -100
40 0 40 0 0 113 c0 122 -8 147 -53 181 -34 25 -104 27 -140 3 -23 -15 -27 -15
-63 4 -40 20 -66 24 -77 12z"/>
<path d="M2967 1116 c-48 -18 -76 -42 -93 -83 -31 -72 -8 -156 55 -199 46 -31
130 -33 179 -4 37 23 40 39 13 64 -18 17 -22 17 -43 2 -65 -46 -149 10 -134
89 12 62 76 87 131 51 28 -19 46 -12 65 25 8 14 3 21 -23 37 -45 28 -104 34
-150 18z"/>
<path d="M3278 1121 c-47 -15 -85 -49 -102 -91 -21 -53 -20 -85 4 -135 53
-110 225 -115 288 -9 43 74 15 181 -58 219 -37 19 -98 26 -132 16z m109 -93
c34 -28 19 -126 -22 -142 -39 -14 -73 -6 -99 25 -29 34 -32 55 -14 95 23 49
89 60 135 22z"/>
<path d="M3643 1115 c-18 -8 -33 -10 -33 -5 0 6 -18 10 -40 10 l-40 0 0 -155
0 -155 40 0 40 0 0 109 c0 113 3 122 46 135 14 4 30 0 45 -13 22 -18 24 -28
27 -125 l4 -106 39 0 39 0 0 110 c0 104 1 110 24 125 27 18 69 7 80 -20 3 -9
6 -61 6 -116 l0 -99 40 0 40 0 0 118 c0 140 -14 173 -78 193 -43 13 -100 1
-122 -26 -10 -12 -16 -11 -38 5 -37 27 -81 33 -119 15z"/>
<path d="M1250 1111 l-25 -7 -3 -147 -3 -147 41 0 40 0 0 155 c0 165 2 160
-50 146z"/>
<path d="M1920 904 l0 -216 23 6 c12 3 30 6 40 6 14 0 17 10 17 65 l0 65 26
-10 c42 -16 106 -12 142 10 54 33 74 75 70 148 -4 57 -7 66 -40 99 -33 32 -44
37 -96 41 -34 2 -68 -1 -81 -7 -14 -8 -21 -8 -21 -1 0 5 -18 10 -40 10 l-40 0
0 -216z m215 121 c17 -16 25 -35 25 -60 0 -68 -67 -104 -135 -73 -23 10 -25
16 -25 74 0 72 10 83 73 84 27 0 45 -7 62 -25z"/>
<path d="M2430 1116 c0 -3 25 -68 55 -146 30 -78 55 -150 55 -160 0 -27 -27
-50 -61 -50 -27 0 -29 -3 -29 -35 l0 -35 49 0 c73 0 99 27 157 163 26 61 62
147 80 190 l34 78 -47 -3 -46 -3 -33 -80 c-19 -44 -37 -89 -42 -99 -9 -20 -7
-24 -62 127 l-21 57 -45 0 c-24 0 -44 -2 -44 -4z"/>
<path d="M382 1071 c-12 -7 -102 -396 -102 -438 0 -7 6 -13 13 -13 14 0 347
432 347 450 0 12 -239 14 -258 1z"/>
<path d="M2729 879 c-17 -33 3 -69 39 -69 33 0 52 16 52 45 0 29 -19 45 -52
45 -18 0 -31 -7 -39 -21z"/>
</g>
</svg>
