<?xml version="1.0" standalone="no"?>
<!DOCTYPE svg PUBLIC "-//W3C//DTD SVG 20010904//EN"
 "http://www.w3.org/TR/2001/REC-SVG-20010904/DTD/svg10.dtd">
<svg version="1.0" xmlns="http://www.w3.org/2000/svg"
 width="401.000000pt" height="201.000000pt" viewBox="0 0 401.000000 201.000000"
 preserveAspectRatio="xMidYMid meet">

<g transform="translate(0.000000,201.000000) scale(0.100000,-0.100000)"
fill="#000000" stroke="none">
<path d="M154 1816 c-62 -29 -110 -84 -129 -150 -22 -74 -22 -1238 0 -1312 19
-66 67 -121 129 -150 l51 -24 1798 0 c1997 0 1834 -6 1911 68 79 76 76 38 76
751 0 457 -3 645 -12 673 -15 51 -82 126 -133 149 -38 18 -116 19 -1840 19
l-1800 0 -51 -24z m2496 -791 l0 -545 -25 0 -25 0 0 538 c0 296 3 542 7 545 3
4 15 7 25 7 17 0 18 -23 18 -545z m701 375 c63 -12 167 -60 194 -90 18 -20 18
-21 -40 -80 -51 -52 -61 -58 -74 -46 -66 57 -177 67 -255 23 -50 -28 -56 -27
-92 5 -20 18 -21 18 -54 -28 -50 -71 -79 -150 -80 -217 0 -70 -15 -68 -24 3
-12 89 20 208 75 278 10 13 16 29 13 37 -11 27 111 97 199 114 59 12 77 12
138 1z m-2551 -70 l0 -60 -95 0 -95 0 0 -245 0 -245 -85 0 -85 0 0 245 0 245
-90 0 -90 0 0 60 0 60 270 0 270 0 0 -60z m319 -86 c30 -6 31 -7 31 -65 l0
-59 -64 0 c-102 0 -96 11 -96 -176 l0 -164 -85 0 -85 0 0 215 0 215 27 11 c23
8 79 15 224 28 9 0 31 -2 48 -5z m1148 -4 l93 0 0 -45 c0 -45 0 -45 -34 -45
l-35 0 16 -37 c19 -47 13 -125 -14 -161 -37 -50 -96 -74 -195 -80 -80 -4 -91
-7 -105 -28 -26 -40 -6 -50 115 -58 74 -5 119 -13 147 -26 74 -36 94 -110 53
-195 l-22 -45 -78 0 c-43 0 -78 2 -78 5 0 3 9 23 20 45 11 22 20 46 20 55 0
25 -44 35 -155 35 -112 0 -177 17 -195 51 -6 10 -10 36 -10 59 0 35 6 47 43
83 l43 41 -37 36 c-81 77 -70 203 24 274 39 29 131 46 216 41 41 -3 116 -5
168 -5z m-826 -157 l52 -158 52 155 52 155 96 3 c53 1 97 1 97 -1 0 -2 -69
-154 -153 -338 l-153 -334 -87 -3 c-48 -1 -87 -1 -87 1 0 2 21 49 47 103 25
54 46 103 46 109 0 5 -46 110 -102 231 -55 122 -101 225 -101 228 0 3 42 6 94
6 l94 0 53 -157z m2139 -119 c0 -61 -14 -108 -46 -150 l-23 -32 22 -24 c21
-22 22 -27 9 -46 -8 -12 -21 -22 -28 -22 -8 0 -14 -3 -14 -8 0 -4 -28 -20 -62
-37 -56 -26 -73 -30 -153 -29 -103 0 -168 21 -239 76 l-43 33 60 62 60 62 29
-24 c69 -59 197 -59 266 0 21 17 32 21 40 13 7 -7 19 2 41 32 41 57 54 102 49
169 l-5 56 18 -40 c10 -22 19 -63 19 -91z"/>
<path d="M2019 1149 c-43 -16 -62 -84 -40 -142 19 -50 118 -59 157 -15 27 29
26 110 -2 138 -24 24 -78 33 -115 19z"/>
</g>
</svg>
