<?xml version="1.0" standalone="no"?>
<!DOCTYPE svg PUBLIC "-//W3C//DTD SVG 20010904//EN"
 "http://www.w3.org/TR/2001/REC-SVG-20010904/DTD/svg10.dtd">
<svg version="1.0" xmlns="http://www.w3.org/2000/svg"
 width="1668.000000pt" height="834.000000pt" viewBox="0 0 1668.000000 834.000000"
 preserveAspectRatio="xMidYMid meet">

<g transform="translate(0.000000,834.000000) scale(0.100000,-0.100000)"
fill="#000000" stroke="none">
<path d="M1037 5154 c-508 -79 -923 -488 -1012 -998 -19 -113 -19 -308 0 -422
82 -477 428 -855 897 -979 625 -165 1275 184 1478 793 51 153 63 246 57 437
-6 210 -30 313 -116 490 -71 147 -149 254 -268 365 -277 259 -655 374 -1036
314z m814 -591 c75 -73 99 -103 99 -123 0 -36 -953 -990 -990 -990 -19 0 -92
67 -312 288 -246 245 -288 292 -288 317 0 42 173 215 215 215 24 0 59 -30 209
-180 l181 -180 375 375 c225 224 383 375 394 375 10 0 63 -44 117 -97z m-383
-1156 c123 -122 123 -120 1 -243 -123 -124 -123 -124 -246 -1 -65 66 -93 100
-93 117 0 33 186 220 220 220 16 0 52 -29 118 -93z"/>
<path d="M6700 3985 l0 -655 99 0 99 0 4 253 3 252 28 57 c32 65 65 93 126
107 79 17 146 -15 179 -89 13 -28 17 -86 20 -307 l4 -273 104 0 104 0 0 258
c0 141 -5 288 -10 325 -25 173 -132 269 -302 269 -97 0 -168 -30 -223 -94
l-35 -42 0 297 0 297 -100 0 -100 0 0 -655z"/>
<path d="M9350 4349 l0 -291 -46 41 c-72 63 -139 84 -259 79 -85 -3 -108 -8
-158 -33 -140 -69 -227 -220 -227 -392 0 -196 84 -343 238 -416 61 -29 75 -32
167 -32 87 0 107 4 157 27 31 14 75 45 97 68 l41 42 0 -56 0 -56 100 0 100 0
0 655 0 655 -105 0 -105 0 0 -291z m-145 -358 c22 -10 54 -34 72 -52 127 -134
93 -358 -67 -439 -53 -27 -147 -27 -199 0 -184 93 -182 407 4 491 52 24 138
24 190 0z"/>
<path d="M14320 3985 l0 -655 105 0 105 0 2 210 3 210 154 -200 c85 -110 160
-205 167 -210 7 -6 66 -9 146 -8 l134 3 -189 224 -188 224 78 81 c43 45 125
129 183 189 l105 107 -140 0 -140 -1 -155 -174 -155 -173 -3 414 -2 414 -105
0 -105 0 0 -655z"/>
<path d="M3140 4465 l0 -95 188 -2 187 -3 3 -517 2 -518 110 0 110 0 0 520 0
520 185 0 185 0 0 95 0 95 -485 0 -485 0 0 -95z"/>
<path d="M16258 4283 l-3 -118 -72 -3 -73 -3 0 -84 0 -85 75 0 75 0 0 -236 c0
-145 4 -253 12 -281 16 -63 87 -137 148 -153 51 -14 225 -9 241 7 6 6 7 39 3
85 l-7 75 -63 -5 c-77 -6 -108 10 -123 65 -6 21 -11 129 -11 241 l0 202 105 0
105 0 0 85 0 85 -105 0 -105 0 0 120 0 120 -100 0 -99 0 -3 -117z"/>
<path d="M4486 4178 c-59 -8 -117 -46 -163 -107 l-33 -43 0 66 0 66 -100 0
-100 0 0 -415 0 -415 105 0 105 0 0 239 c0 266 6 300 63 359 49 51 84 66 160
66 l67 0 0 92 0 92 -27 4 c-16 2 -50 0 -77 -4z"/>
<path d="M10023 4179 c-110 -14 -194 -65 -236 -143 -17 -31 -22 -58 -22 -117
0 -66 4 -81 27 -117 37 -55 100 -90 227 -124 58 -16 119 -37 136 -47 57 -33
59 -107 3 -141 -73 -44 -175 -31 -261 35 l-47 36 -28 -20 c-15 -10 -46 -39
-70 -63 l-42 -44 48 -36 c103 -79 240 -111 382 -90 176 25 263 114 263 266 0
82 -15 118 -69 166 -48 42 -94 61 -223 96 -121 32 -155 55 -153 103 1 43 23
66 78 81 64 18 138 0 193 -46 47 -40 37 -44 135 43 l48 42 -28 26 c-83 77
-217 112 -361 94z"/>
<path d="M10993 4179 c-67 -9 -136 -49 -173 -101 l-30 -41 0 61 0 62 -100 0
-100 0 0 -415 0 -415 104 0 105 0 3 273 3 272 27 47 c36 60 99 93 164 85 58
-6 92 -30 115 -80 17 -38 19 -69 19 -319 l0 -278 105 0 105 0 0 233 c0 312 18
380 113 428 87 45 188 2 216 -90 7 -25 11 -134 11 -305 l0 -266 106 0 105 0
-3 318 -3 317 -28 57 c-54 109 -140 160 -272 160 -106 0 -168 -25 -231 -95
-24 -27 -46 -48 -47 -46 -86 119 -172 157 -314 138z"/>
<path d="M14079 4180 c-61 -11 -123 -51 -162 -106 l-32 -46 -3 66 -3 66 -99 0
-100 0 0 -415 0 -415 104 0 104 0 4 253 c3 277 5 285 71 355 39 40 120 67 177
57 l40 -7 0 96 c0 76 -3 96 -14 96 -8 0 -20 2 -28 4 -7 2 -34 0 -59 -4z"/>
<path d="M5860 4171 c-56 -18 -128 -61 -166 -99 -165 -166 -165 -481 1 -647
140 -141 397 -151 534 -22 l34 32 -7 -85 c-13 -189 -111 -273 -298 -257 -77 7
-184 50 -229 93 l-26 25 -62 -83 -62 -83 23 -19 c34 -27 106 -62 184 -88 60
-20 89 -23 214 -23 128 1 152 3 203 24 147 58 232 173 257 349 5 37 10 248 10
470 l0 402 -100 0 -100 0 0 -62 0 -62 -36 43 c-20 23 -59 54 -88 68 -44 23
-65 27 -156 30 -58 1 -116 -1 -130 -6z m265 -180 c46 -21 98 -75 122 -129 25
-58 22 -175 -6 -234 -26 -53 -77 -103 -127 -124 -47 -20 -141 -17 -190 5 -78
36 -144 148 -144 248 0 44 25 119 54 163 53 80 195 115 291 71z"/>
<path d="M7955 4162 c-188 -66 -295 -222 -295 -428 0 -255 186 -434 450 -434
142 0 252 46 338 142 l23 25 -69 56 -70 56 -41 -39 c-43 -41 -117 -70 -177
-70 -60 0 -137 32 -181 76 -39 39 -69 106 -57 126 3 4 147 8 320 8 l314 0 0
43 c-1 136 -44 268 -115 346 -20 22 -67 55 -103 73 -61 30 -75 33 -177 36 -85
2 -121 -2 -160 -16z m208 -143 c57 -16 104 -63 122 -122 8 -28 15 -54 15 -59
0 -4 -97 -8 -215 -8 -141 0 -215 4 -215 10 0 23 33 87 58 113 61 65 150 90
235 66z"/>
<path d="M12329 4166 c-56 -16 -162 -71 -185 -97 -16 -17 -14 -21 32 -79 27
-33 52 -60 57 -60 4 0 26 14 49 30 99 72 246 79 317 16 29 -26 51 -75 51 -115
l0 -29 -97 -6 c-217 -14 -291 -29 -372 -78 -72 -43 -101 -97 -101 -182 1 -181
166 -286 403 -256 101 12 171 45 226 105 l41 45 40 -43 c21 -24 61 -55 87 -69
98 -53 256 -62 376 -20 64 23 146 79 171 117 16 24 16 25 -50 79 l-67 55 -45
-40 c-80 -70 -198 -87 -289 -40 -68 35 -123 107 -123 162 0 18 10 19 315 19
l315 0 0 68 c0 79 -21 176 -51 234 -32 62 -105 135 -168 165 -52 26 -64 28
-186 28 -123 0 -133 -1 -187 -29 -31 -16 -71 -44 -89 -62 l-32 -33 -48 43
c-78 70 -108 81 -234 83 -67 1 -128 -3 -156 -11z m804 -147 c52 -14 111 -69
125 -117 23 -77 37 -72 -202 -72 l-214 0 10 39 c29 112 162 183 281 150z
m-485 -392 c-5 -67 -37 -113 -92 -137 -127 -56 -266 -18 -266 72 0 68 42 94
174 108 39 4 97 8 130 9 l58 1 -4 -53z"/>
<path d="M15475 4163 c-163 -59 -262 -180 -287 -353 -43 -291 150 -510 449
-510 129 0 278 63 333 140 l20 29 -67 54 -67 55 -45 -39 c-85 -76 -204 -87
-305 -31 -54 31 -103 95 -108 142 l-3 25 319 3 319 2 -6 93 c-12 184 -80 301
-212 370 -55 29 -69 31 -175 34 -91 3 -125 0 -165 -14z m207 -143 c70 -20 119
-76 133 -153 l7 -37 -216 0 c-119 0 -216 2 -216 4 0 2 7 23 15 47 39 109 162
171 277 139z"/>
<path d="M4603 4148 c3 -7 83 -196 179 -419 l175 -406 -38 -89 c-54 -124 -71
-139 -159 -139 -39 0 -70 0 -70 0 0 0 -5 -38 -10 -85 -7 -64 -7 -86 3 -92 20
-13 179 -8 220 6 58 21 101 55 136 107 19 27 118 267 242 583 115 296 209 539
209 542 0 2 -49 4 -109 4 l-108 0 -103 -302 c-79 -229 -106 -297 -112 -282 -5
10 -57 145 -116 299 l-108 280 -118 3 c-93 2 -117 0 -113 -10z"/>
</g>
</svg>
