<?xml version="1.0" standalone="no"?>
<!DOCTYPE svg PUBLIC "-//W3C//DTD SVG 20010904//EN"
 "http://www.w3.org/TR/2001/REC-SVG-20010904/DTD/svg10.dtd">
<svg version="1.0" xmlns="http://www.w3.org/2000/svg"
 width="401.000000pt" height="201.000000pt" viewBox="0 0 401.000000 201.000000"
 preserveAspectRatio="xMidYMid meet">

<g transform="translate(0.000000,201.000000) scale(0.100000,-0.100000)"
fill="#000000" stroke="none">
<path d="M202 1479 c-63 -32 -130 -102 -159 -167 -29 -63 -42 -199 -28 -289
l7 -48 17 60 c23 80 43 116 84 151 88 74 105 86 145 105 44 22 68 22 250 3 62
-6 63 -6 131 39 109 72 148 89 198 85 l45 -3 -27 22 c-37 33 -83 29 -178 -14
-57 -25 -98 -36 -133 -37 -45 -1 -58 4 -129 53 -95 66 -152 76 -223 40z"/>
<path d="M3260 1265 l0 -115 -40 26 c-76 50 -180 41 -250 -22 -108 -98 -97
-313 21 -391 73 -48 194 -43 238 11 19 23 31 20 31 -9 0 -22 4 -25 40 -25 l40
0 0 320 0 320 -40 0 -40 0 0 -115z m-64 -154 c88 -54 87 -229 -2 -287 -38 -25
-113 -23 -151 4 -87 61 -83 230 5 285 37 22 109 22 148 -2z"/>
<path d="M3577 1363 c-4 -3 -7 -28 -7 -55 l0 -48 55 0 55 0 0 55 0 55 -48 0
c-27 0 -52 -3 -55 -7z"/>
<path d="M2055 1191 c-22 -10 -47 -26 -55 -36 -14 -17 -15 -16 -20 11 -5 26
-9 29 -45 29 l-40 0 -3 -317 -2 -318 45 0 45 0 0 117 0 116 23 -21 c31 -29 70
-42 127 -42 64 0 97 13 142 57 91 89 89 283 -4 370 -56 52 -143 66 -213 34z
m133 -81 c85 -52 95 -200 18 -268 -47 -41 -94 -48 -151 -23 -141 62 -98 311
53 311 29 0 59 -8 80 -20z"/>
<path d="M2538 1196 c-99 -35 -139 -93 -146 -205 -5 -92 7 -138 51 -188 43
-49 99 -73 172 -73 110 0 193 60 222 159 27 93 3 201 -59 258 -60 56 -162 77
-240 49z m152 -81 c47 -24 70 -73 70 -147 0 -77 -25 -123 -80 -150 -101 -51
-210 27 -210 149 0 97 58 163 141 163 28 0 63 -7 79 -15z"/>
<path d="M1412 1018 c3 -170 5 -186 26 -219 51 -83 183 -93 265 -21 16 14 17
13 17 -11 0 -25 3 -27 45 -27 l45 0 -2 228 -3 227 -40 0 -40 0 -5 -156 c-6
-173 -12 -194 -73 -223 -43 -20 -70 -20 -106 -1 -42 21 -51 61 -51 231 l0 154
-41 0 -41 0 4 -182z"/>
<path d="M3457 1194 c-4 -4 -7 -20 -7 -36 0 -28 0 -28 65 -28 l65 0 0 -160 0
-160 -75 0 -75 0 0 -35 0 -35 195 0 195 0 0 35 0 35 -75 0 -75 0 -2 193 -3
192 -101 3 c-55 1 -103 0 -107 -4z"/>
<path d="M3888 798 c5 -7 12 -24 15 -38 4 -21 4 -20 6 8 1 40 21 43 21 2 0
-16 5 -30 10 -30 6 0 10 6 10 13 0 9 3 8 9 -2 6 -10 10 -10 16 -1 6 9 10 9 16
-1 6 -9 9 -1 9 24 0 41 -14 50 -24 15 l-7 -23 -9 23 c-7 17 -17 22 -46 22 -28
0 -34 -3 -26 -12z"/>
</g>
</svg>
