<?xml version="1.0" encoding="utf-8"?>
<!-- Generator: Adobe Illustrator 24.0.2, SVG Export Plug-In . SVG Version: 6.00 Build 0)  -->
<svg version="1.1" id="Capa_1" xmlns="http://www.w3.org/2000/svg" xmlns:xlink="http://www.w3.org/1999/xlink" x="0px" y="0px"
	 viewBox="0 0 488 488" style="enable-background:new 0 0 488 488;" xml:space="preserve">
<style type="text/css">
	.st0{fill:#083151;}
</style>
<g>
	<g id="XMLID_1_">
		<g>
			<g id="XMLID_35_">
				<path id="XMLID_38_" class="st0" d="M485.2,205.2c-2.3-2.3-5.5-3.2-8.6-2.6l-82.1,16.5c-3.4,0.7-6.2,3.2-7.2,6.6
					c-1,3.4-0.1,7,2.4,9.5l11.1,11.1L357,290l-33.8-33.8c-1.8-1.8-4.2-2.8-6.7-2.8s-5,1-6.7,2.8l-41.4,41.4l15.5-55.8
					c3.8-13.6,1.1-27.8-7.5-39c-5.2-6.9-12.1-11.9-19.9-14.8l12.4-35.5c3.4,0.3,6.8,0.5,10.2,0.5c27.5,0,54.4-9.7,75.6-27.3l2.3-1.9
					c11.2-9.3,13.1-25.4,4.4-36.7c-4.4-5.7-10.8-9.3-18-10.1c-7.2-0.8-14.2,1.3-19.8,5.9l-2.6,2.1c-3.8,3.2-8,5.9-12.4,8.1
					c-14.7,7.4-33,4.1-45.2-8C281.1,79.6,294,63,294,43.5c0-24-19.5-43.5-43.5-43.5c-24,0-43.5,19.5-43.5,43.5
					c0,9.5,3.1,18.4,8.3,25.6c-9.9,2.1-18.8,7.2-25.6,14.5c-0.4,0.3-0.8,0.7-1.1,1.2c-16.8,20.6-39.2,35.4-64.8,42.8
					c-6.9,2-12.4,6.6-15.7,12.4l-19.5-19.5c-8.5-8.5-22.5-8.5-31,0L32,145.9l0,0l0,0L6.5,171.5C2.3,175.6,0,181.1,0,187
					c0,5.9,2.3,11.4,6.4,15.5l70.4,70.4c4.1,4.1,9.6,6.4,15.5,6.4c5.9,0,11.4-2.3,15.5-6.4l26.5-26.5l-12.6,32.9
					c-1.9,4.9,0.6,10.4,5.5,12.3c1.1,0.4,2.3,0.6,3.4,0.6c3.8,0,7.5-2.3,8.9-6.1l31.3-82h59.7h10.3c8.1,0,15.5,3.7,20.4,10.1
					c4.9,6.4,6.4,14.6,4.3,22.4l-21.7,77.8c-1,3.5-4.2,5.9-7.8,5.9c-3.3,0-5.3-1.8-6.2-2.9c-0.9-1.1-2.4-3.3-1.8-6.6l11.5-72.4
					c0.4-2.8-0.4-5.6-2.2-7.7c-1.8-2.1-4.5-3.3-7.2-3.3h-22.6c-3.6,0-6.9,2-8.5,5.2c-0.6,1.1-55.9,110.4-74.5,147.4
					c-1.9,3.7-5.9,5.8-10.1,5.2l-0.5-0.1c-2.8-0.4-5.3-2-6.8-4.5c-1.5-2.5-1.7-5.4-0.7-8.1l5.9-15.4c1.9-4.9-0.6-10.4-5.5-12.3
					c-4.9-1.9-10.4,0.6-12.3,5.5L88.8,366c-3.1,8.1-2.3,17.1,2.1,24.6c4.5,7.5,12,12.5,20.6,13.6l0.5,0.1c1.3,0.2,2.6,0.3,3.9,0.3
					c10.8,0,20.8-6,25.8-15.8c16.3-32.3,60.5-119.8,71.8-142.1h5.6l-9.8,61.4c-1.3,7.9,1,15.9,6.2,21.9c3.3,3.9,7.6,6.7,12.4,8.2
					L121.6,444.4c-1.8,1.8-2.8,4.2-2.8,6.7s1,5,2.8,6.7l27.3,27.3c1.9,1.9,4.3,2.8,6.7,2.8c2.4,0,4.9-0.9,6.7-2.8l52.6-52.6
					c3.7-3.7,3.7-9.8,0-13.5c-3.7-3.7-9.8-3.7-13.5,0L155.7,465l-13.9-13.9l174.7-174.7l33.8,33.8c1.8,1.8,4.2,2.8,6.7,2.8
					s5-1,6.7-2.8l57.1-57.1c3.7-3.7,3.7-9.8,0-13.5l-5.3-5.3l50.7-10.2l-10.2,50.7l-7.8-7.8c-3.7-3.7-9.8-3.7-13.5,0l-77.7,77.7
					l-33.8-33.8c-3.7-3.7-9.8-3.7-13.5,0l-54.4,54.4c-3.7,3.7-3.7,9.8,0,13.5c3.7,3.7,9.8,3.7,13.5,0l47.6-47.6l33.8,33.8
					c3.7,3.7,9.8,3.7,13.5,0l77.7-77.7l13.7,13.7c2.5,2.5,6.1,3.4,9.5,2.4c3.4-1,5.9-3.8,6.6-7.2l16.5-82.1
					C488.4,210.7,487.4,207.5,485.2,205.2z M250.5,19.1c13.5,0,24.4,11,24.4,24.4C275,57,264,68,250.5,68c-13.5,0-24.5-11-24.5-24.5
					C226.1,30,237,19.1,250.5,19.1z M156.2,188l-11.6-11.6c5.5-1.8,10.9-3.9,16.2-6.2L156.2,188z M124,154.9c-1.1-3.9,1.1-8,5-9.1
					c15.7-4.5,30.3-11.5,43.4-20.6l-5.4,20.7c-10.7,5.9-22.1,10.7-34,14.1c-0.2,0.1-0.5,0.1-0.7,0.2c-1.8,0.3-3.5,0-5-0.9l-2.8-2.8
					C124.4,156,124.2,155.5,124,154.9z M71.1,133.8c0.6-0.6,1.3-0.8,2-0.8s1.5,0.3,2,0.8l34.7,34.7c1.6,2.2,3.5,4.1,5.7,5.7l30,30
					c1.1,1.1,1.1,2.9,0,4l-18.8,18.8l-20.9-20.9l4-4c3.7-3.7,3.7-9.8,0-13.5l-21.5-21.5c-3.7-3.7-9.8-3.7-13.5,0l-4,4l-18.6-18.6
					L71.1,133.8z M84.1,200.9c-0.9,0.9-2,1-2.5,1c-0.6,0-1.6-0.1-2.5-1v0l-2.9-2.9c-0.9-0.9-1-2-1-2.5c0-0.6,0.1-1.6,1-2.5l5.4-5.4
					l8,8L84.1,200.9z M94.4,259.5c-0.7,0.7-1.5,0.8-2,0.8c-0.5,0-1.3-0.1-2-0.8L19.9,189c-0.7-0.7-0.8-1.5-0.8-2
					c0-0.5,0.1-1.3,0.8-2l18.8-18.8l19.5,19.5c-1.5,3-2.2,6.4-2.2,9.8c0,6,2.4,11.7,6.6,16l2.9,2.9v0c4.3,4.3,10,6.6,16,6.6
					c3.5,0,6.8-0.8,9.8-2.2l21.8,21.8L94.4,259.5z M230.6,185.1h-53.9l19.6-75.3c3.5-13.5,15.7-22.9,29.6-22.9
					c8.6,0,16.5,3.5,22.4,9.8c17.9,19.3,46.3,24.8,69,13.3c5.7-2.9,11-6.4,16-10.5l2.6-2.1c1.6-1.3,3.5-1.9,5.5-1.7
					c2,0.2,3.8,1.2,5,2.8c2.4,3.1,1.7,7.8-1.4,10.4l-2.3,1.9c-17.8,14.8-40.3,22.9-63.4,22.9c-5,0-10.1-0.4-15.2-1.2
					c-4.5-0.7-8.9,1.9-10.5,6.3l-16.2,46.2H230.6z"/>
				<path id="XMLID_37_" class="st0" d="M235.4,389.6c-2.5,0-5,1-6.7,2.8c-1.8,1.8-2.8,4.2-2.8,6.7c0,2.5,1,5,2.8,6.7
					c1.8,1.8,4.2,2.8,6.7,2.8s5-1,6.7-2.8c1.8-1.8,2.8-4.2,2.8-6.7c0-2.5-1-5-2.8-6.7C240.4,390.6,237.9,389.6,235.4,389.6z"/>
				<path id="XMLID_36_" class="st0" d="M117.1,328c2.5,0,5-1,6.7-2.8c1.8-1.8,2.8-4.2,2.8-6.7s-1-5-2.8-6.7
					c-1.8-1.8-4.2-2.8-6.7-2.8c-2.5,0-5,1-6.7,2.8c-1.8,1.8-2.8,4.2-2.8,6.7s1,5,2.8,6.7C112.2,327,114.6,328,117.1,328z"/>
			</g>
		</g>
	</g>
</g>
</svg>
