<?xml version="1.0" encoding="utf-8"?>
<!-- Generator: Adobe Illustrator 24.0.2, SVG Export Plug-In . SVG Version: 6.00 Build 0)  -->
<svg version="1.1" id="Capa_1" xmlns="http://www.w3.org/2000/svg" xmlns:xlink="http://www.w3.org/1999/xlink" x="0px" y="0px"
	 viewBox="0 0 488 488" style="enable-background:new 0 0 488 488;" xml:space="preserve">
<style type="text/css">
	.st0{fill:#083151;}
</style>
<g>
	<g>
		<path class="st0" d="M300.5,369.1c0-1.1-0.9-1.9-1.9-1.9h-2.3c22.6-86.4,107-115.5,102.4-212.5C394.7,72.6,333.2,1.5,243.9,1.6
			c-88.4,0-150.7,70.3-154.6,153.2c-4.2,89.5,65.8,119.9,95.3,191.2c2.8,6.7,5.2,13.7,7.2,21.2h-2.3c-1.1,0-1.9,0.9-1.9,1.9l0,26.8
			l112.8,0L300.5,369.1z M269.3,348.5l0-69.7c0-2-0.5-3.8-1.4-5.4c10.1-33.8,28.8-96.5,33.7-113.3c18.2-0.7,39.6-1.2,47.4-13.1
			c12.4-18.8-16.5-45.1-36.3-34.8c-12.3,6.4-15.9,24.3-19.3,37.4c-22.2,0.6-77.1,0.6-99.2,0c-3.5-13.6-9.7-48.8-39.4-37.5
			c-18,6.9-22.5,25.4-16.2,34.9c7.9,12,29.6,12.4,47.4,13.1c13,43.5,20.1,67.3,33.9,113.7c-0.7,1.5-1.2,3.2-1.2,5l0,69.7h-13.1
			c-11.8-33.8-31.4-58.4-50.7-82.5c-28.8-35.9-49.1-63.2-46.9-110.3c1.7-36.6,16.1-70.5,40.4-95.5c25.3-26.1,58.3-39.8,95.5-39.8
			c28.1,0,54.6,8.2,76.6,23.7c36.2,25.3,57.2,67.3,59.3,111.6c2.3,48.4-20.6,77.2-47.1,110.6c-18.2,22.9-38.6,48.6-50.4,82.3H269.3z
			 M235.2,195.2c0,2.6,1.2,5,3,6.6l0,65.4h-7.9c-0.4,0-0.8,0-1.1,0c-7.6-25.5-27.5-91.9-31.9-106.8c16.6,0.3,76.6,0.3,93,0
			c-5.3,17.8-22.1,74.2-31.8,106.8c-0.3,0-0.6,0-0.8,0h-7.9l0-65.4c1.8-1.6,3-4,3-6.6c0-4.9-3.9-8.8-8.8-8.8
			C239.1,186.4,235.2,190.3,235.2,195.2z M304.7,148.9c3.5-13.7,7.3-28.3,17.6-28.3c13.3,0,21.8,14.2,17.8,20.3
			c-4.8,7.2-26.1,7.6-35.5,8.1C304.7,149.1,304.7,149,304.7,148.9z M147.6,141.1c-6.2-9.4,12.2-24.6,22.4-19.3
			c7.1,3.7,10.4,16.7,13,27.2C183.5,151,152.1,147.9,147.6,141.1z"/>
		<rect x="187.7" y="406.8" class="st0" width="112.8" height="14"/>
		<path class="st0" d="M292.6,445.8h3.8c2.2,0,4-1.7,4-3.7v-10.3l-112.8,0l0,10.3c0,2.1,1.8,3.7,4,3.7h3.8
			c9.9,20.3,18.5,41.9,40.4,41.9h16.2C274.7,487.7,282.7,466.1,292.6,445.8z"/>
	</g>
</g>
</svg>
