<?xml version="1.0" encoding="utf-8"?>
<!-- Generator: Adobe Illustrator 24.0.2, SVG Export Plug-In . SVG Version: 6.00 Build 0)  -->
<svg version="1.1" id="Capa_1" xmlns="http://www.w3.org/2000/svg" xmlns:xlink="http://www.w3.org/1999/xlink" x="0px" y="0px"
	 viewBox="0 0 488 488" style="enable-background:new 0 0 488 488;" xml:space="preserve">
<style type="text/css">
	.st0{fill:#083151;}
</style>
<g>
	<g>
		<g>
			<g>
				<g>
					<path class="st0" d="M104.7,472.9l-14.3-20.2c-3-4.3-9-5.3-13.3-2.3c-4.3,3-5.3,9-2.3,13.3L89.1,484c1.9,2.6,4.8,4,7.8,4
						c1.9,0,3.8-0.6,5.5-1.8C106.7,483.2,107.7,477.2,104.7,472.9z"/>
				</g>
			</g>
			<g>
				<g>
					<path class="st0" d="M214.6,476.5L199,402.1c-7.6-36.2-28.7-67.5-59.4-88.1l-33.3-22.4c-13.4-9-31.3-7.1-42.5,4.3V181
						c0-15.1-10.3-27.9-25-31.1c-9.5-2.1-19.3,0.2-26.9,6.3C4.4,162.2,0,171.3,0,181v147.8c0,19.4,5.9,37.9,17.1,53.7l17,23.9
						c1.9,2.6,4.8,4,7.8,4c1.9,0,3.8-0.6,5.5-1.8c4.3-3,5.3-9,2.3-13.3l-17-23.9c-8.9-12.5-13.6-27.3-13.6-42.7V181
						c0-3.9,1.8-7.6,4.8-10c3.1-2.5,7-3.4,10.8-2.5c5.9,1.3,10.1,6.5,10.1,12.5v117.2c0,16.6,6.1,32.4,17.2,44.7
						c0.5,0.6,1,1.1,1.5,1.7c6.3,6.7,13.8,14.6,20.8,22.1l9.8,10.4c0,0,0.1,0.1,0.1,0.1c8.4,8.9,14.6,15.5,14.7,15.7
						c3.6,3.8,9.6,4,13.5,0.4c3.8-3.6,4-9.6,0.4-13.5c-0.2-0.2-11.3-12.1-24.1-25.6L76.8,331c-0.1-0.1-0.1-0.1-0.2-0.2
						c-5.1-6.1-5.1-15,0.3-21.1c4.8-5.4,12.8-6.4,18.8-2.4l33.3,22.4c26.5,17.8,44.8,44.9,51.3,76.2l15.6,74.4
						c0.9,4.5,4.9,7.6,9.3,7.6c0.6,0,1.3-0.1,2-0.2C212.4,486.7,215.7,481.7,214.6,476.5z"/>
				</g>
			</g>
			<g>
				<g>
					<path class="st0" d="M70.6,425L70.6,425c-3.1-4.4-9.1-5.4-13.4-2.3s-5.3,9-2.2,13.3l0.1,0.1c1.9,2.6,4.8,4,7.8,4
						c1.9,0,3.8-0.6,5.5-1.8C72.7,435.2,73.7,429.2,70.6,425z"/>
				</g>
			</g>
			<g>
				<g>
					<path class="st0" d="M476.1,156.1c-7.6-6.1-17.4-8.4-26.9-6.3c-14.7,3.3-25,16.1-25,31.1v114.8c-11.2-11.4-29.1-13.3-42.5-4.3
						L348.3,314c-30.7,20.6-51.8,51.9-59.4,88.1l-15.6,74.4c-1.1,5.2,2.2,10.2,7.4,11.3c0.7,0.1,1.3,0.2,2,0.2
						c4.4,0,8.4-3.1,9.3-7.6l15.6-74.4c6.6-31.3,24.8-58.4,51.3-76.2l33.3-22.4c5.9-4,14-3,18.8,2.4c5.4,6.1,5.4,14.9,0.3,21.1
						c-0.1,0.1-0.1,0.1-0.2,0.2c0,0-45.8,48.7-45.9,48.9c-3.6,3.8-3.4,9.9,0.4,13.5c3.8,3.6,9.9,3.4,13.5-0.4
						c0.1-0.1,39.1-41.5,45.4-48.3c0.5-0.5,1-1.1,1.5-1.7c11.1-12.3,17.2-28.1,17.2-44.7V181c0-6.1,4.1-11.2,10.1-12.5
						c3.8-0.8,7.8,0.1,10.8,2.5c3.1,2.5,4.8,6.1,4.8,10v147.8c0,15.4-4.7,30.1-13.6,42.7l-72,101.4c-3,4.3-2,10.2,2.3,13.3
						c1.7,1.2,3.6,1.8,5.5,1.8c3,0,5.9-1.4,7.8-4l72-101.4c11.2-15.8,17.1-34.4,17.1-53.7V181C488,171.3,483.6,162.2,476.1,156.1z"
						/>
				</g>
			</g>
			<g>
				<g>
					<path class="st0" d="M364.7,182.7l-17-4.1v-3c11-7.7,18.2-20.5,18.2-35v-22c0-23.5-19.1-42.7-42.7-42.7
						c-10.6,0-20.2,3.9-27.7,10.2c-8.3-20.3-28.3-34.7-51.6-34.7c-23.3,0-43.3,14.4-51.6,34.8c-7.5-6.4-17.2-10.3-27.8-10.3
						c-23.5,0-42.7,19.1-42.7,42.7v1.5v20.6c0,14.4,7.2,27.2,18.2,35v3l-17,4.1c-20.2,4.8-34.4,22.8-34.4,43.6V244
						c0,5.3,4.3,9.5,9.5,9.5h43.8c-0.1,1.2-0.1,2.3-0.1,3.5v34.3c0,5.3,4.3,9.5,9.5,9.5H209c5.3,0,9.5-4.3,9.5-9.5s-4.3-9.5-9.5-9.5
						h-9.8v-19.7c0-5.3-4.3-9.5-9.5-9.5s-9.5,4.3-9.5,9.5v19.7h-18.8v-24.7c0-18.4,12.5-34.2,30.4-38.5l26.2-6.3l17.5,39.8
						c1.5,3.5,4.9,5.7,8.7,5.7h0c3.8,0,7.2-2.2,8.7-5.7l17.5-39.8l26.1,6.2c17.9,4.3,30.4,20.1,30.4,38.5v24.7h-18.8v-19.7
						c0-5.3-4.3-9.5-9.5-9.5c-5.3,0-9.5,4.3-9.5,9.5v19.7H278c-5.3,0-9.5,4.3-9.5,9.5s4.3,9.5,9.5,9.5h58.2c5.3,0,9.5-4.3,9.5-9.5
						v-34.2c0-1.2,0-2.4-0.1-3.5h43.9c5.3,0,9.5-4.3,9.5-9.5v-17.8C399.1,205.4,385,187.5,364.7,182.7z M323.4,95
						c12.5,0,22.7,9.8,23.5,22h-13.3c-11.1,0-22.1-2.7-32-7.8C305.3,100.9,313.7,95,323.4,95z M299.8,139.2c0-0.5,0-0.9,0-1.4v-8.5
						c10.7,4.4,22.2,6.7,33.9,6.7h13.3v4.5c0,13-10.6,23.6-23.6,23.6c-13,0-23.6-10.6-23.6-23.6V139.2z M207.5,107.1L207.5,107.1
						c0-20.2,16.4-36.6,36.6-36.6c18.2,0,33.4,13.4,36.1,30.8l-16-9.4c-4-2.4-9.1-1.5-12.1,2.1c-7.8,9.4-19.3,14.7-31.6,14.7h-13
						L207.5,107.1L207.5,107.1z M164.8,95c9.7,0,18,5.9,21.7,14.2c-9.9,5.1-20.8,7.8-32,7.8h-13.3C142,104.7,152.3,95,164.8,95z
						 M141.2,136.1h13.3c11.7,0,23.2-2.3,33.9-6.7v11.3c0,13-10.6,23.6-23.6,23.6s-23.6-10.6-23.6-23.6L141.2,136.1L141.2,136.1z
						 M187.2,200c-18.8,4.5-33.5,17.6-40.5,34.5h-38.6v-8.3c0-12,8.1-22.3,19.8-25l24.3-5.8c4.3-1,7.3-4.9,7.3-9.3v-3.2
						c1.8,0.2,3.5,0.3,5.3,0.3c1.8,0,3.6-0.1,5.3-0.3v2.7c0,0.1,0,0.3,0,0.4c0,3.1,1.5,6.2,4.4,8c1.1,0.7,2.2,1.1,3.4,1.4l14.2,3.4
						L187.2,200z M213.8,185.2c-2.4-1.1-5-1.9-7.6-2.6l-17-4.1v-3c3.1-2.1,5.9-4.7,8.3-7.5c4.3,6.6,9.8,12.2,16.4,16.4L213.8,185.2
						L213.8,185.2z M255.2,199.2L244,224.6l-11.2-25.4v-6.8c3.6,0.8,7.4,1.1,11.3,1.1c3.8,0,7.5-0.4,11.1-1.1V199.2z M244.1,174.5
						c-20.2,0-36.6-16.4-36.6-36.6v-10.1h13c15.1,0,29.5-5.6,40.5-15.6l19.7,11.5v15.6C280,158.8,263.8,174.5,244.1,174.5z
						 M274.3,185.3v-0.6c6.6-4.3,12.2-9.9,16.5-16.5c2.4,2.8,5.1,5.3,8.2,7.5v3l-17,4.1C279.3,183.3,276.7,184.2,274.3,185.3z
						 M380,234.5h-38.8c-7-16.9-21.8-30-40.5-34.5l-4.8-1.1l14.3-3.4c1.2-0.2,2.4-0.7,3.4-1.4c2.8-1.8,4.4-4.9,4.4-8
						c0-0.1,0-0.1,0-0.2v-2.9c1.7,0.2,3.5,0.3,5.3,0.3c1.8,0,3.6-0.1,5.3-0.3v3.2c0,4.4,3,8.2,7.3,9.3l24.3,5.8
						c11.6,2.8,19.8,13.1,19.8,25L380,234.5L380,234.5z"/>
				</g>
			</g>
			<g>
				<g>
					<path class="st0" d="M250.7,284.6c-1.8-1.8-4.2-2.8-6.7-2.8c-2.5,0-5,1-6.7,2.8c-1.8,1.8-2.8,4.2-2.8,6.7c0,2.5,1,5,2.8,6.7
						c1.8,1.8,4.2,2.8,6.7,2.8c2.5,0,5-1,6.7-2.8c1.8-1.8,2.8-4.2,2.8-6.7C253.5,288.8,252.5,286.4,250.7,284.6z"/>
				</g>
			</g>
			<g>
				<g>
					<path class="st0" d="M244,0c-5.3,0-9.5,4.3-9.5,9.5v14.3c0,5.3,4.3,9.5,9.5,9.5c5.3,0,9.5-4.3,9.5-9.5V9.5
						C253.5,4.3,249.3,0,244,0z"/>
				</g>
			</g>
			<g>
				<g>
					<path class="st0" d="M208.9,31.1l-10-10c-3.7-3.7-9.8-3.7-13.5,0s-3.7,9.8,0,13.5l10,10c1.9,1.9,4.3,2.8,6.7,2.8
						c2.4,0,4.9-0.9,6.7-2.8C212.6,40.8,212.6,34.8,208.9,31.1z"/>
				</g>
			</g>
			<g>
				<g>
					<path class="st0" d="M302.4,21.3c-3.7-3.7-9.8-3.7-13.5,0l-9.9,9.9c-3.7,3.7-3.7,9.8,0,13.5c1.9,1.9,4.3,2.8,6.7,2.8
						c2.4,0,4.9-0.9,6.7-2.8l9.9-9.9C306.1,31.1,306.1,25.1,302.4,21.3z"/>
				</g>
			</g>
		</g>
	</g>
</g>
</svg>
