<?xml version="1.0" encoding="utf-8"?>
<!-- Generator: Adobe Illustrator 24.2.1, SVG Export Plug-In . SVG Version: 6.00 Build 0)  -->
<svg version="1.1" id="Lag_1" xmlns="http://www.w3.org/2000/svg" xmlns:xlink="http://www.w3.org/1999/xlink" x="0px" y="0px"
	 viewBox="0 0 1080 1080" style="enable-background:new 0 0 1080 1080;" xml:space="preserve">
<style type="text/css">
	<!-- .st0{fill:#182848;} -->
	<!-- .st0{fill:#FFFFFF;} -->
	.st0{fill:red;}
	.st1{fill:#FFFFFF;}
	<!-- .st1{fill:#182848;} -->
	.st2{fill:#182848;}
	<!-- .st2{fill:#30C0F2;} -->
</style>
<g>
	<g>
		<path class="st0" d="M303.8,896.7c-197-169.1-219.6-465.8-50.6-662.8c169.1-197,465.8-219.7,662.9-50.6
			c197,169.1,219.6,465.8,50.6,662.8C797.6,1043.1,500.8,1065.8,303.8,896.7z"/>
		
			<ellipse transform="matrix(0.7071 -0.7071 0.7071 0.7071 -203.1941 589.4466)" class="st1" cx="609.9" cy="540" rx="386.1" ry="386.1"/>
	</g>
	<path class="st0" d="M4.6,532.2l104.1-56.3c-2.7,18.2-4.4,36.7-4.9,55.5c-0.8,27.3,0.8,54.1,4.7,80.2L4.2,547.3
		C-1.6,543.8-1.4,535.5,4.6,532.2z"/>
	<path class="st2" d="M836.5,584c8.7,12.6,5.4,29.8-7.1,38.4L614.3,770.8c-1.3,0.9-2.8,1.3-4.4,1.3c-1,0-2-0.2-3-0.6l-135.9-57.2
		v3.8c0,4.2-3.4,7.7-7.7,7.7h-30.9c-4.3,0-7.7-3.5-7.7-7.7v-7.7h-38.6c-4.3,0-7.7-3.4-7.7-7.7v-108c0-4.2,3.4-7.7,7.7-7.7h38.6v-7.7
		c0-4.3,3.4-7.7,7.7-7.7h30.9c4.2,0,7.7,3.4,7.7,7.7v3.5l58.6-26c2.2-1,4.7-0.9,6.8,0.2l115.7,61.7c2.5,1.3,4.1,4,4.1,6.8v12.6
		c114.9-50,142.7-61.8,149.9-64.7c0.8-0.5,1.7-0.9,2.6-1v0C819.5,570.5,830.3,575.1,836.5,584z"/>
	<path class="st2" d="M839.1,376.5l-10.3,10.3c7.3,1.4,12.5,7.7,12.5,15.1v7.7c0,8.5-6.9,15.4-15.4,15.4h-8.3
		c-2.2,14.8-10.3,28-22.5,36.6v21.3l27.7,20.8c0.8,0.6,1.5,1.4,2.1,2.3c2.1,3.7,0.8,8.4-2.8,10.5l-54,30.9c-2.4,1.4-5.3,1.4-7.6,0
		l-54-30.9c-0.9-0.5-1.7-1.2-2.3-2.1c-2.6-3.4-1.9-8.2,1.6-10.8l27.8-20.8v-21.3c-12.2-8.5-20.4-21.8-22.5-36.6H709
		c0.8,5.1,1.2,10.3,1.3,15.4v5.2c0,0.9,0.1,1.7,0.4,2.5l6.9,20.7c0.3,0.8,0.4,1.6,0.4,2.4c0,4.2-3.4,7.7-7.7,7.7h-56.1
		c-3.6,5.2-8.2,9.7-13.4,13.4v21.3l27.7,20.8c0.9,0.6,1.6,1.4,2.1,2.3c2.1,3.7,0.9,8.4-2.8,10.5l-54,30.9c-2.4,1.3-5.3,1.3-7.6,0
		l-54-30.9c-0.9-0.5-1.7-1.2-2.3-2c-2.5-3.4-1.8-8.3,1.6-10.8l27.8-20.8v-21.3c-5.2-3.7-9.7-8.2-13.4-13.4h-56
		c-0.8,0-1.7-0.1-2.4-0.4c-4-1.3-6.2-5.7-4.9-9.7l6.9-20.8c0.3-0.8,0.4-1.6,0.4-2.4v-5.2c0.1-5.2,0.5-10.3,1.3-15.4H509
		c-2.1,14.8-10.3,28-22.5,36.6v21.3l27.7,20.8c0.8,0.6,1.5,1.4,2,2.3c2.1,3.7,0.9,8.4-2.8,10.5l-54,30.9c-2.4,1.4-5.3,1.4-7.6,0
		l-54-30.9c-0.9-0.5-1.7-1.2-2.4-2.1c-2.5-3.4-1.8-8.2,1.6-10.8l27.8-20.8v-21.3c-12.2-8.5-20.4-21.8-22.5-36.6H394
		c-8.5,0-15.4-6.9-15.4-15.4v-7.7c0-7.4,5.3-13.8,12.5-15.1l-10.3-10.3c-1.5-1.4-2.3-3.4-2.3-5.4v-7.7c0.1-29.8,24.2-54,54-54h46.3
		c29.8,0,54,24.2,54,54v7.7c0,2-0.8,4-2.3,5.4l-10.3,10.3c1.5,0.3,2.9,0.8,4.2,1.5c8.3-13.7,19.8-25.2,33.5-33.5
		c47.2-28.8,108.8-13.8,137.5,33.5c1.3-0.7,2.7-1.2,4.1-1.5l-10.3-10.3c-1.4-1.4-2.3-3.4-2.3-5.4v-7.7c0.1-29.8,24.2-54,54-54h46.3
		c29.8,0,54,24.2,54,54v7.7C841.4,373.1,840.5,375,839.1,376.5z"/>
	<g id="partnership_1_">
		<path class="st0" d="M836.5,584c-6.2-9-17-13.5-27.8-11.5v0c-0.9,0.2-1.8,0.5-2.6,1c-7.2,2.8-35,14.7-149.9,64.7v-12.6
			c0-2.8-1.6-5.5-4.1-6.8l-115.7-61.7c-2.1-1.1-4.6-1.2-6.8-0.2l-58.6,26v-3.5c0-4.3-3.4-7.7-7.7-7.7h-30.9c-4.3,0-7.7,3.4-7.7,7.7
			v7.7h-38.6c-4.3,0-7.7,3.4-7.7,7.7v108c0,4.3,3.4,7.7,7.7,7.7h38.6v7.7c0,4.2,3.4,7.7,7.7,7.7h30.9c4.2,0,7.7-3.5,7.7-7.7v-3.8
			L607,771.5c0.9,0.4,2,0.6,3,0.6c1.6,0,3.1-0.5,4.4-1.3l215.1-148.3C841.9,613.9,845.2,596.6,836.5,584z M424.8,695H394v-92.6h30.9
			V695z M455.7,710.4h-15.4V587h15.4V710.4z M820.6,609.7L609.1,755.7l-138-58.1v-97.9l61.4-27.3l108.3,57.8V641
			c0,4.3-3.5,7.7-7.7,7.7H532.8v15.4h100.3c5.4,0,10.7-2,14.8-5.5c63.4-27.6,158.3-68.8,164.4-71.1c3.4-0.4,6.7,0.6,9.3,2.8
			c2.8,2.3,4.4,5.8,4.3,9.4C825.9,603.7,823.9,607.5,820.6,609.7z"/>
		<path class="st0" d="M841.4,371v-7.7c-0.1-29.8-24.2-54-54-54h-46.3c-29.8,0-54,24.2-54,54v7.7c0,2,0.8,4,2.3,5.4l10.3,10.3
			c-1.5,0.3-2.8,0.8-4.1,1.5C666.8,341,605.2,326,558,354.8c-13.7,8.3-25.2,19.8-33.5,33.5c-1.3-0.7-2.7-1.2-4.2-1.5l10.3-10.3
			c1.5-1.5,2.3-3.4,2.3-5.4v-7.7c-0.1-29.8-24.2-54-54-54h-46.3c-29.8,0-54,24.2-54,54v7.7c0,2,0.8,4,2.3,5.4l10.3,10.3
			c-7.3,1.4-12.5,7.7-12.5,15.1v7.7c0,8.5,6.9,15.4,15.4,15.4h8.3c2.2,14.8,10.3,28,22.5,36.6v21.3l-27.8,20.8
			c-3.4,2.5-4.1,7.4-1.6,10.8c0.6,0.9,1.4,1.6,2.4,2.1l54,30.9c2.4,1.4,5.3,1.4,7.6,0l54-30.9c3.7-2.1,4.9-6.8,2.8-10.5
			c-0.5-0.9-1.2-1.7-2-2.3l-27.7-20.8v-21.3c12.2-8.5,20.4-21.8,22.5-36.6h1.9c-0.8,5.1-1.3,10.3-1.3,15.4v5.2
			c0,0.8-0.1,1.6-0.4,2.4l-6.9,20.8c-1.3,4,0.8,8.4,4.9,9.7c0.8,0.3,1.6,0.4,2.4,0.4h56c3.7,5.2,8.2,9.7,13.4,13.4v21.3l-27.8,20.8
			c-3.4,2.5-4.1,7.4-1.6,10.8c0.6,0.8,1.4,1.5,2.3,2l54,30.9c2.4,1.3,5.3,1.3,7.6,0l54-30.9c3.7-2.1,5-6.8,2.8-10.5
			c-0.5-0.9-1.2-1.7-2.1-2.3l-27.7-20.8v-21.3c5.2-3.7,9.7-8.2,13.4-13.4h56.1c4.2,0,7.7-3.5,7.7-7.7c0-0.8-0.1-1.7-0.4-2.4
			l-6.9-20.7c-0.3-0.8-0.4-1.6-0.4-2.5v-5.2c-0.1-5.2-0.5-10.3-1.3-15.4h1.9c2.1,14.8,10.3,28,22.5,36.6v21.3l-27.8,20.8
			c-3.4,2.5-4.1,7.4-1.6,10.8c0.6,0.9,1.4,1.6,2.3,2.1l54,30.9c2.4,1.4,5.3,1.4,7.6,0l54-30.9c3.7-2.1,5-6.8,2.8-10.5
			c-0.5-0.9-1.2-1.7-2.1-2.3l-27.7-20.8v-21.3c12.2-8.5,20.4-21.8,22.5-36.6h8.3c8.5,0,15.4-6.9,15.4-15.4v-7.7
			c0-7.4-5.3-13.8-12.5-15.1l10.3-10.3C840.5,375,841.4,373.1,841.4,371z M401.7,409.6H394v-7.7h7.7V409.6z M495.6,509l-40,22.8
			l-40-22.8l21.5-16.1c1.9-1.5,3.1-3.8,3.1-6.2V469c10.1,3,20.8,3,30.9,0v17.7c0,2.4,1.2,4.7,3.1,6.2L495.6,509z M494.3,417.3
			c0,21.3-17.3,38.5-38.6,38.5c-21.3,0-38.6-17.3-38.6-38.5V377l53.1-13.3l24,12V417.3z M517.4,401.9c-1,2.5-2,5.1-2.8,7.7h-4.9
			v-7.7L517.4,401.9L517.4,401.9z M517.4,367.8l-7.7,7.7V371c0-2.9-1.6-5.6-4.2-6.9l-30.9-15.4c-1.7-0.8-3.5-1-5.3-0.6l-61.7,15.4
			c-3.4,0.9-5.9,3.9-5.9,7.5v4.5l-7.7-7.7v-4.5c0-21.3,17.3-38.5,38.6-38.6h46.3c21.3,0,38.5,17.3,38.6,38.6V367.8z M649.9,539.9
			l-40,22.8l-40-22.8l21.5-16.1c1.9-1.5,3.1-3.8,3.1-6.2v-17.7c10.1,3,20.8,3,30.9,0v17.7c0,2.4,1.1,4.7,3.1,6.2L649.9,539.9z
			 M648.5,448.2c0,21.3-17.3,38.6-38.6,38.6c-21.3,0-38.5-17.3-38.5-38.6v-41.5l24-12l53.1,13.3V448.2z M661.6,463.6
			c0.7-2.5,1.3-5.1,1.7-7.7h8.4c8.5,0,15.4-6.9,15.4-15.4v-7.7c0-8.5-6.9-15.4-15.4-15.4H664v-15.4c0-3.5-2.4-6.6-5.9-7.5L596.4,379
			c-1.8-0.5-3.7-0.3-5.3,0.6L560.2,395c-2.6,1.3-4.3,4-4.3,6.9v15.4h-7.7c-8.5,0-15.4,6.9-15.4,15.4v7.7c0,8.5,6.9,15.4,15.4,15.4
			h8.3c0.4,2.6,0.9,5.2,1.7,7.7h-37.8l3.5-10.6c0.8-2.3,1.2-4.8,1.2-7.3v-5.2c0-46.9,38-84.9,84.8-84.9c46.9,0,84.9,38,84.9,84.9
			v5.2c0,2.5,0.4,4.9,1.2,7.3l3.5,10.6H661.6z M664,440.5v-7.7h7.7v7.7H664z M556,432.7v7.7h-7.7v-7.7H556z M710.2,409.6h-4.9
			c-0.9-2.6-1.7-5.2-2.8-7.7h7.6V409.6z M804.2,509l-40,22.8l-40-22.8l21.4-16.1c1.9-1.5,3.1-3.8,3.1-6.2V469c10.1,3,20.8,3,30.9,0
			v17.7c0,2.4,1.1,4.7,3.1,6.2L804.2,509z M802.8,417.3c0,21.3-17.3,38.5-38.6,38.5s-38.6-17.3-38.6-38.5v-41.5l24-12l53.1,13.3
			V417.3z M825.9,409.6h-7.7v-7.7h7.7V409.6z M825.9,367.8l-7.7,7.7V371c0-3.5-2.4-6.6-5.8-7.5l-61.7-15.4c-1.8-0.5-3.7-0.3-5.3,0.6
			l-30.9,15.4c-2.6,1.3-4.3,4-4.2,6.9v4.5l-7.7-7.7v-4.5c0-21.3,17.3-38.5,38.6-38.6h46.3c21.3,0,38.5,17.3,38.6,38.6V367.8z"/>
	</g>
</g>
</svg>
